<svg width="204" height="45" viewBox="0 0 204 45" fill="none" xmlns="http://www.w3.org/2000/svg">
<path fill-rule="evenodd" clip-rule="evenodd" d="M2.29985 15.1235V0.963507H0.499849V16.8515H10.9639V15.1235H2.29985ZM21.4869 13.3955C20.7829 14.7395 19.6229 15.4115 18.0069 15.4115C16.8229 15.4115 15.8469 15.0435 15.0789 14.3075C14.3269 13.5875 13.8869 12.6755 13.7589 11.5715H23.8149V10.8515C23.8149 9.07551 23.2869 7.61151 22.2309 6.45951C21.1109 5.25951 19.6549 4.65951 17.8629 4.65951C16.0709 4.65951 14.6149 5.25951 13.4949 6.45951C12.4389 7.61151 11.9109 9.07551 11.9109 10.8515C11.9109 12.6115 12.4629 14.0755 13.5669 15.2435C14.7029 16.4435 16.1749 17.0435 17.9829 17.0435C19.4069 17.0435 20.5669 16.7075 21.4629 16.0355C22.3749 15.3635 23.0389 14.4835 23.4549 13.3955H21.4869ZM15.0789 7.32351C15.8309 6.63551 16.7589 6.29151 17.8629 6.29151C18.9669 6.29151 19.8949 6.63551 20.6469 7.32351C21.3509 7.97951 21.7829 8.83551 21.9429 9.89151H13.7829C13.9429 8.83551 14.3749 7.97951 15.0789 7.32351ZM31.0783 17.0435C32.9823 17.0435 34.4143 16.3395 35.3743 14.9315V16.8515H37.1743V4.85151H35.3743V6.79551C34.3983 5.37151 33.0063 4.65951 31.1983 4.65951C29.3903 4.65951 27.9423 5.25951 26.8543 6.45951C25.7983 7.64351 25.2703 9.10751 25.2703 10.8515C25.2703 12.5955 25.7983 14.0595 26.8543 15.2435C27.9423 16.4435 29.3503 17.0435 31.0783 17.0435ZM34.3903 14.0675C33.6383 14.9635 32.6143 15.4115 31.3183 15.4115C30.0383 15.4115 28.9983 14.9635 28.1983 14.0675C27.4463 13.2195 27.0703 12.1475 27.0703 10.8515C27.0703 9.55551 27.4463 8.48351 28.1983 7.63551C28.9983 6.73951 30.0383 6.29151 31.3183 6.29151C32.6143 6.29151 33.6383 6.73951 34.3903 7.63551C35.1103 8.48351 35.4703 9.55551 35.4703 10.8515C35.4703 12.1475 35.1103 13.2195 34.3903 14.0675ZM45.3517 17.0435C47.2557 17.0435 48.6877 16.3395 49.6477 14.9315V16.8515H51.4477V0.0515075H49.6477V6.79551C48.6717 5.37151 47.2797 4.65951 45.4717 4.65951C43.6637 4.65951 42.2157 5.25951 41.1277 6.45951C40.0717 7.64351 39.5437 9.10751 39.5437 10.8515C39.5437 12.5955 40.0717 14.0595 41.1277 15.2435C42.2157 16.4435 43.6237 17.0435 45.3517 17.0435ZM48.6637 14.0675C47.9117 14.9635 46.8877 15.4115 45.5917 15.4115C44.3117 15.4115 43.2717 14.9635 42.4717 14.0675C41.7197 13.2195 41.3437 12.1475 41.3437 10.8515C41.3437 9.55551 41.7197 8.48351 42.4717 7.63551C43.2717 6.73951 44.3117 6.29151 45.5917 6.29151C46.8877 6.29151 47.9117 6.73951 48.6637 7.63551C49.3837 8.48351 49.7437 9.55551 49.7437 10.8515C49.7437 12.1475 49.3837 13.2195 48.6637 14.0675ZM63.3932 13.3955C62.6892 14.7395 61.5292 15.4115 59.9132 15.4115C58.7292 15.4115 57.7532 15.0435 56.9852 14.3075C56.2332 13.5875 55.7932 12.6755 55.6652 11.5715H65.7212V10.8515C65.7212 9.07551 65.1932 7.61151 64.1372 6.45951C63.0172 5.25951 61.5612 4.65951 59.7692 4.65951C57.9772 4.65951 56.5212 5.25951 55.4012 6.45951C54.3452 7.61151 53.8172 9.07551 53.8172 10.8515C53.8172 12.6115 54.3692 14.0755 55.4732 15.2435C56.6092 16.4435 58.0812 17.0435 59.8892 17.0435C61.3132 17.0435 62.4732 16.7075 63.3692 16.0355C64.2812 15.3635 64.9452 14.4835 65.3612 13.3955H63.3932ZM56.9852 7.32351C57.7372 6.63551 58.6652 6.29151 59.7692 6.29151C60.8732 6.29151 61.8012 6.63551 62.5532 7.32351C63.2572 7.97951 63.6892 8.83551 63.8492 9.89151H55.6892C55.8492 8.83551 56.2812 7.97951 56.9852 7.32351ZM74.2565 6.45951V4.65951H74.1365C73.3845 4.65951 72.7445 4.78751 72.2165 5.04351C70.9365 5.63551 70.1045 6.55551 69.7205 7.80351V4.85151H67.9205V16.8515H69.7205V11.5715C69.7205 10.1955 70.1045 9.01151 70.8725 8.01951C71.6885 6.97951 72.7445 6.45951 74.0405 6.45951H74.2565ZM80.226 6.19551C82.082 6.19551 83.09 6.81951 83.25 8.06751H85.074C84.962 7.09151 84.554 6.30751 83.85 5.71551C83.002 5.01151 81.842 4.65951 80.37 4.65951C78.818 4.65951 77.642 4.96351 76.842 5.57151C76.058 6.16351 75.666 7.00351 75.666 8.09151C75.666 8.82751 75.858 9.40351 76.242 9.81951C76.642 10.2355 77.138 10.5635 77.73 10.8035C78.322 11.0435 78.962 11.2355 79.65 11.3795C80.354 11.5075 81.002 11.6595 81.594 11.8355C82.186 11.9955 82.674 12.2115 83.058 12.4835C83.458 12.7395 83.658 13.1155 83.658 13.6115C83.658 14.3475 83.274 14.8675 82.506 15.1715C82.17 15.2995 81.826 15.3875 81.474 15.4355C81.122 15.4835 80.738 15.5075 80.322 15.5075C79.922 15.5075 79.514 15.4435 79.098 15.3155C77.962 14.9315 77.338 14.1875 77.226 13.0835H75.354C75.418 14.2195 75.882 15.1395 76.746 15.8435C77.69 16.6435 78.962 17.0435 80.562 17.0435C82.066 17.0435 83.258 16.7395 84.138 16.1315C85.018 15.5075 85.458 14.6115 85.458 13.4435C85.458 12.6915 85.258 12.0995 84.858 11.6675C84.474 11.2355 83.986 10.8995 83.394 10.6595C82.802 10.4035 82.154 10.2115 81.45 10.0835C80.762 9.93951 80.122 9.78751 79.53 9.62751C78.938 9.46751 78.442 9.26751 78.042 9.02751C77.658 8.77151 77.466 8.40351 77.466 7.92351C77.466 6.77151 78.386 6.19551 80.226 6.19551ZM89.5721 6.72351V0.0515075H87.7721V16.8515H89.5721V9.93951C89.5721 8.86751 89.9241 7.98751 90.6281 7.29951C91.3321 6.62751 92.1881 6.29151 93.1961 6.29151C94.1881 6.29151 94.9961 6.61951 95.6201 7.27551C96.2441 7.93151 96.5561 8.81151 96.5561 9.91551V16.8515H98.3561V9.86751C98.3561 8.26751 97.8601 6.97951 96.8681 6.00351C96.4361 5.55551 95.9321 5.21951 95.3561 4.99551C94.7801 4.77151 94.0921 4.65951 93.2921 4.65951C92.4921 4.65951 91.7801 4.85951 91.1561 5.25951C90.5321 5.65951 90.0041 6.14751 89.5721 6.72351ZM103.166 4.85151H101.366V16.8515H103.166V4.85151ZM103.238 2.83551V0.483508H101.294V2.83551H103.238ZM112.384 4.65951C110.48 4.65951 109.048 5.36351 108.088 6.77151V4.85151H106.288V21.6035H108.088V14.9075C109.064 16.3315 110.456 17.0435 112.264 17.0435C114.072 17.0435 115.512 16.4435 116.584 15.2435C117.656 14.0595 118.192 12.5955 118.192 10.8515C118.192 9.10751 117.656 7.64351 116.584 6.45951C115.512 5.25951 114.112 4.65951 112.384 4.65951ZM109.072 7.63551C109.824 6.73951 110.848 6.29151 112.144 6.29151C113.424 6.29151 114.464 6.73951 115.264 7.63551C116.016 8.48351 116.392 9.55551 116.392 10.8515C116.392 12.1475 116.016 13.2195 115.264 14.0675C114.464 14.9635 113.424 15.4115 112.144 15.4115C110.848 15.4115 109.824 14.9635 109.072 14.0675C108.352 13.2195 107.992 12.1475 107.992 10.8515C107.992 9.55551 108.352 8.48351 109.072 7.63551ZM126.031 16.8515H127.831V0.963507H126.031V16.8515ZM133.142 6.72351V4.85151H131.342V16.8515H133.142V9.93951C133.142 8.86751 133.494 7.98751 134.198 7.29951C134.902 6.62751 135.758 6.29151 136.766 6.29151C137.758 6.29151 138.566 6.61951 139.19 7.27551C139.814 7.93151 140.126 8.81151 140.126 9.91551V16.8515H141.926V9.86751C141.926 8.26751 141.43 6.97951 140.438 6.00351C140.006 5.55551 139.502 5.21951 138.926 4.99551C138.35 4.77151 137.662 4.65951 136.862 4.65951C136.062 4.65951 135.35 4.85951 134.726 5.25951C134.102 5.65951 133.574 6.14751 133.142 6.72351ZM156.166 2.69151H161.71V0.963507H148.822V2.69151H154.366V16.8515H156.166V2.69151ZM170.104 13.3955C169.4 14.7395 168.24 15.4115 166.624 15.4115C165.44 15.4115 164.464 15.0435 163.696 14.3075C162.944 13.5875 162.504 12.6755 162.376 11.5715H172.432V10.8515C172.432 9.07551 171.904 7.61151 170.848 6.45951C169.728 5.25951 168.272 4.65951 166.48 4.65951C164.688 4.65951 163.232 5.25951 162.112 6.45951C161.056 7.61151 160.528 9.07551 160.528 10.8515C160.528 12.6115 161.08 14.0755 162.184 15.2435C163.32 16.4435 164.792 17.0435 166.6 17.0435C168.024 17.0435 169.184 16.7075 170.08 16.0355C170.992 15.3635 171.656 14.4835 172.072 13.3955H170.104ZM163.696 7.32351C164.448 6.63551 165.376 6.29151 166.48 6.29151C167.584 6.29151 168.512 6.63551 169.264 7.32351C169.968 7.97951 170.4 8.83551 170.56 9.89151H162.4C162.56 8.83551 162.992 7.97951 163.696 7.32351ZM182.215 14.7635C181.623 15.1955 180.943 15.4115 180.175 15.4115C178.767 15.4115 177.663 14.9635 176.863 14.0675C176.079 13.2035 175.687 12.1315 175.687 10.8515C175.687 9.57151 176.079 8.49951 176.863 7.63551C177.231 7.21951 177.679 6.89151 178.207 6.65151C178.751 6.41151 179.407 6.29151 180.175 6.29151C180.943 6.29151 181.623 6.50751 182.215 6.93951C182.807 7.37151 183.239 7.93151 183.511 8.61951H185.455C185.087 7.43551 184.415 6.48351 183.439 5.76351C182.415 5.02751 181.199 4.65951 179.791 4.65951C178.031 4.65951 176.599 5.25951 175.495 6.45951C174.423 7.62751 173.887 9.09151 173.887 10.8515C173.887 12.6115 174.423 14.0755 175.495 15.2435C176.599 16.4435 178.031 17.0435 179.791 17.0435C181.199 17.0435 182.415 16.6755 183.439 15.9395C184.415 15.2195 185.087 14.2675 185.455 13.0835H183.511C183.239 13.7715 182.807 14.3315 182.215 14.7635ZM189.486 6.72351V0.0515075H187.686V16.8515H189.486V9.93951C189.486 8.86751 189.838 7.98751 190.542 7.29951C191.246 6.62751 192.102 6.29151 193.11 6.29151C194.102 6.29151 194.91 6.61951 195.534 7.27551C196.158 7.93151 196.47 8.81151 196.47 9.91551V16.8515H198.27V9.86751C198.27 8.26751 197.774 6.97951 196.782 6.00351C196.35 5.55551 195.846 5.21951 195.27 4.99551C194.694 4.77151 194.006 4.65951 193.206 4.65951C192.406 4.65951 191.694 4.85951 191.07 5.25951C190.446 5.65951 189.918 6.14751 189.486 6.72351ZM203.32 16.8515V14.4035H200.992V16.8515H203.32ZM203.32 7.29951V4.85151H200.992V7.29951H203.32ZM1.49335 41.3686V36.8061H3.73554C4.24595 36.8009 4.72772 36.7228 5.18085 36.5717C5.63918 36.4207 6.04022 36.202 6.38397 35.9155C6.72772 35.629 6.99856 35.2775 7.19647 34.8608C7.3996 34.4389 7.50116 33.9546 7.50116 33.4077C7.50116 32.8608 7.3996 32.3764 7.19647 31.9546C6.99856 31.5327 6.72772 31.1785 6.38397 30.8921C6.04022 30.6056 5.63918 30.3869 5.18085 30.2358C4.72772 30.0848 4.24595 30.004 3.73554 29.9936H0.0480368V41.3686H1.49335ZM3.73554 35.6186H1.49335V31.1811H3.73554C4.06887 31.1863 4.37616 31.241 4.65741 31.3452C4.94387 31.4494 5.18866 31.5978 5.39179 31.7905C5.60012 31.9832 5.76158 32.2176 5.87616 32.4936C5.99595 32.7697 6.05585 33.0796 6.05585 33.4233C6.05585 33.7671 5.99595 34.0744 5.87616 34.3452C5.76158 34.6108 5.60012 34.8374 5.39179 35.0249C5.18345 35.2124 4.93866 35.3582 4.65741 35.4624C4.37616 35.5613 4.06887 35.6134 3.73554 35.6186ZM14.9387 40.9624C14.9751 41.1238 15.022 41.2592 15.0793 41.3686H16.5871V41.2436C16.4933 41.0092 16.4204 40.7358 16.3683 40.4233C16.3163 40.1056 16.2902 39.8061 16.2902 39.5249V35.5952C16.2902 35.1212 16.2043 34.7072 16.0324 34.353C15.8605 33.9988 15.6236 33.7046 15.3215 33.4702C15.0246 33.2306 14.6704 33.0535 14.259 32.9389C13.8475 32.8191 13.4022 32.7592 12.923 32.7592C12.397 32.7592 11.9256 32.8322 11.509 32.978C11.0975 33.1238 10.746 33.3165 10.4543 33.5561C10.1678 33.7905 9.94647 34.0561 9.79022 34.353C9.63918 34.6499 9.56106 34.952 9.55585 35.2592H11.009C11.009 35.0822 11.0506 34.9129 11.134 34.7514C11.2225 34.5848 11.3449 34.4415 11.5012 34.3217C11.6574 34.202 11.8475 34.1056 12.0715 34.0327C12.3006 33.9598 12.5585 33.9233 12.8449 33.9233C13.1522 33.9233 13.4282 33.9624 13.673 34.0405C13.923 34.1186 14.134 34.2306 14.3058 34.3764C14.4777 34.5171 14.6105 34.6889 14.7043 34.8921C14.798 35.0952 14.8449 35.3244 14.8449 35.5796V36.2436H13.2668C12.6782 36.2436 12.1444 36.3009 11.6652 36.4155C11.1913 36.5301 10.785 36.7046 10.4465 36.9389C10.1079 37.1681 9.84491 37.4572 9.65741 37.8061C9.47512 38.1551 9.38397 38.5613 9.38397 39.0249C9.38397 39.379 9.45168 39.7098 9.5871 40.0171C9.72772 40.3191 9.92304 40.5822 10.173 40.8061C10.4282 41.0249 10.7355 41.1994 11.0949 41.3296C11.4595 41.4598 11.8657 41.5249 12.3137 41.5249C12.5897 41.5249 12.8501 41.4962 13.0949 41.4389C13.3397 41.3816 13.5689 41.3035 13.7824 41.2046C14.0012 41.1056 14.1991 40.991 14.3762 40.8608C14.5585 40.7306 14.7225 40.5926 14.8683 40.4467C14.884 40.6238 14.9074 40.7957 14.9387 40.9624ZM13.3137 40.1577C13.0689 40.2306 12.8058 40.2671 12.5246 40.2671C12.2433 40.2671 11.996 40.2306 11.7824 40.1577C11.5689 40.0848 11.3918 39.9858 11.2512 39.8608C11.1105 39.7306 11.0038 39.577 10.9308 39.3999C10.8631 39.2228 10.8293 39.0301 10.8293 38.8217C10.8293 38.2853 11.0637 37.8921 11.5324 37.6421C12.0012 37.3921 12.6574 37.2671 13.5012 37.2671H14.8449V38.978C14.7616 39.1447 14.647 39.3061 14.5012 39.4624C14.3553 39.6134 14.1808 39.7488 13.9777 39.8686C13.7798 39.9884 13.5585 40.0848 13.3137 40.1577ZM24.6496 38.6655C24.7173 38.8009 24.7512 38.9546 24.7512 39.1264C24.746 39.4962 24.5663 39.7931 24.2121 40.0171C23.8579 40.241 23.3762 40.353 22.7668 40.353C22.522 40.353 22.2746 40.327 22.0246 40.2749C21.7746 40.2228 21.5454 40.1342 21.3371 40.0092C21.134 39.8842 20.9621 39.7202 20.8215 39.5171C20.6861 39.3139 20.6079 39.0639 20.5871 38.7671H19.1418C19.1418 39.1264 19.2225 39.4728 19.384 39.8061C19.5506 40.1395 19.7876 40.4337 20.0949 40.6889C20.4074 40.9389 20.7876 41.1421 21.2355 41.2983C21.6835 41.4494 22.1939 41.5249 22.7668 41.5249C23.2668 41.5249 23.7277 41.465 24.1496 41.3452C24.5715 41.2254 24.9335 41.0561 25.2355 40.8374C25.5376 40.6186 25.772 40.3556 25.9387 40.0483C26.1105 39.741 26.1965 39.3999 26.1965 39.0249C26.1965 38.6759 26.121 38.3686 25.9699 38.103C25.8241 37.8374 25.6105 37.6056 25.3293 37.4077C25.048 37.2046 24.7017 37.0327 24.2902 36.8921C23.8788 36.7462 23.4126 36.6186 22.8918 36.5092C22.496 36.4311 22.1678 36.3504 21.9074 36.2671C21.6522 36.1837 21.4465 36.09 21.2902 35.9858C21.1392 35.8816 21.0324 35.7645 20.9699 35.6342C20.9074 35.504 20.8762 35.3556 20.8762 35.1889C20.8762 35.0275 20.9152 34.8712 20.9933 34.7202C21.0715 34.5691 21.1861 34.4363 21.3371 34.3217C21.4933 34.2072 21.6861 34.116 21.9152 34.0483C22.1496 33.9806 22.4204 33.9467 22.7277 33.9467C23.0246 33.9467 23.2902 33.9884 23.5246 34.0717C23.7642 34.1551 23.9673 34.2645 24.134 34.3999C24.3006 34.5353 24.4308 34.6915 24.5246 34.8686C24.6183 35.0405 24.6652 35.2176 24.6652 35.3999H26.1105C26.1105 35.0301 26.0298 34.6863 25.8683 34.3686C25.7121 34.0457 25.4881 33.7645 25.1965 33.5249C24.9048 33.2853 24.5506 33.0978 24.134 32.9624C23.7173 32.827 23.2486 32.7592 22.7277 32.7592C22.2433 32.7592 21.798 32.8244 21.3918 32.9546C20.9907 33.0848 20.6444 33.2619 20.3527 33.4858C20.0611 33.7098 19.8345 33.9728 19.673 34.2749C19.5116 34.5717 19.4308 34.8921 19.4308 35.2358C19.4308 35.5848 19.509 35.8921 19.6652 36.1577C19.8215 36.4181 20.0402 36.6473 20.3215 36.8452C20.6079 37.0379 20.9491 37.2046 21.3449 37.3452C21.746 37.4858 22.1887 37.6056 22.673 37.7046C23.0689 37.7827 23.3996 37.8712 23.6652 37.9702C23.9308 38.0639 24.1444 38.1681 24.3058 38.2827C24.4673 38.3973 24.5819 38.5249 24.6496 38.6655ZM34.1574 40.9624C34.1939 41.1238 34.2407 41.2592 34.298 41.3686H35.8058V41.2436C35.7121 41.0092 35.6392 40.7358 35.5871 40.4233C35.535 40.1056 35.509 39.8061 35.509 39.5249V35.5952C35.509 35.1212 35.423 34.7072 35.2512 34.353C35.0793 33.9988 34.8423 33.7046 34.5402 33.4702C34.2433 33.2306 33.8892 33.0535 33.4777 32.9389C33.0663 32.8191 32.621 32.7592 32.1418 32.7592C31.6157 32.7592 31.1444 32.8322 30.7277 32.978C30.3163 33.1238 29.9647 33.3165 29.673 33.5561C29.3866 33.7905 29.1652 34.0561 29.009 34.353C28.8579 34.6499 28.7798 34.952 28.7746 35.2592H30.2277C30.2277 35.0822 30.2694 34.9129 30.3527 34.7514C30.4413 34.5848 30.5637 34.4415 30.7199 34.3217C30.8762 34.202 31.0663 34.1056 31.2902 34.0327C31.5194 33.9598 31.7772 33.9233 32.0637 33.9233C32.371 33.9233 32.647 33.9624 32.8918 34.0405C33.1418 34.1186 33.3527 34.2306 33.5246 34.3764C33.6965 34.5171 33.8293 34.6889 33.923 34.8921C34.0168 35.0952 34.0637 35.3244 34.0637 35.5796V36.2436H32.4855C31.897 36.2436 31.3631 36.3009 30.884 36.4155C30.41 36.5301 30.0038 36.7046 29.6652 36.9389C29.3267 37.1681 29.0637 37.4572 28.8762 37.8061C28.6939 38.1551 28.6027 38.5613 28.6027 39.0249C28.6027 39.379 28.6704 39.7098 28.8058 40.0171C28.9465 40.3191 29.1418 40.5822 29.3918 40.8061C29.647 41.0249 29.9543 41.1994 30.3137 41.3296C30.6782 41.4598 31.0845 41.5249 31.5324 41.5249C31.8085 41.5249 32.0689 41.4962 32.3137 41.4389C32.5585 41.3816 32.7876 41.3035 33.0012 41.2046C33.2199 41.1056 33.4178 40.991 33.5949 40.8608C33.7772 40.7306 33.9413 40.5926 34.0871 40.4467C34.1027 40.6238 34.1262 40.7957 34.1574 40.9624ZM32.5324 40.1577C32.2876 40.2306 32.0246 40.2671 31.7433 40.2671C31.4621 40.2671 31.2147 40.2306 31.0012 40.1577C30.7876 40.0848 30.6105 39.9858 30.4699 39.8608C30.3293 39.7306 30.2225 39.577 30.1496 39.3999C30.0819 39.2228 30.048 39.0301 30.048 38.8217C30.048 38.2853 30.2824 37.8921 30.7512 37.6421C31.2199 37.3921 31.8762 37.2671 32.7199 37.2671H34.0637V38.978C33.9803 39.1447 33.8657 39.3061 33.7199 39.4624C33.5741 39.6134 33.3996 39.7488 33.1965 39.8686C32.9986 39.9884 32.7772 40.0848 32.5324 40.1577ZM38.3137 35.3374C38.1574 35.8634 38.0793 36.4415 38.0793 37.0717V37.2358C38.0793 37.84 38.16 38.4051 38.3215 38.9311C38.4829 39.452 38.7095 39.9051 39.0012 40.2905C39.2928 40.6759 39.6444 40.978 40.0558 41.1967C40.4725 41.4155 40.9361 41.5249 41.4465 41.5249C41.9673 41.5249 42.423 41.4363 42.8137 41.2592C43.2043 41.0822 43.5402 40.8217 43.8215 40.478L43.884 41.3686H45.2121V29.3686H43.7668V33.7514C43.4907 33.4285 43.1626 33.1837 42.7824 33.0171C42.4074 32.8452 41.9673 32.7592 41.4621 32.7592C40.9465 32.7592 40.4803 32.866 40.0637 33.0796C39.647 33.2931 39.2902 33.59 38.9933 33.9702C38.7017 34.3504 38.4751 34.8061 38.3137 35.3374ZM39.6574 38.4077C39.5689 38.0379 39.5246 37.6473 39.5246 37.2358V37.0717C39.5246 36.6603 39.5689 36.2697 39.6574 35.8999C39.746 35.5249 39.8814 35.1967 40.0637 34.9155C40.2512 34.629 40.4881 34.4025 40.7746 34.2358C41.0663 34.0691 41.4152 33.9858 41.8215 33.9858C42.2954 33.9858 42.6913 34.0978 43.009 34.3217C43.3267 34.5405 43.5793 34.8217 43.7668 35.1655V39.0874C43.673 39.2697 43.5637 39.4363 43.4387 39.5874C43.3137 39.7332 43.1704 39.8608 43.009 39.9702C42.8475 40.0744 42.6678 40.1551 42.4699 40.2124C42.272 40.2697 42.0506 40.2983 41.8058 40.2983C41.4048 40.2983 41.0611 40.2176 40.7746 40.0561C40.4881 39.8895 40.2512 39.6655 40.0637 39.3842C39.8814 39.103 39.746 38.7775 39.6574 38.4077ZM50.0558 41.2202C50.5558 41.4233 51.1027 41.5249 51.6965 41.5249C52.1079 41.5249 52.4881 41.478 52.8371 41.3842C53.1861 41.2957 53.4986 41.1759 53.7746 41.0249C54.0506 40.8738 54.2928 40.702 54.5012 40.5092C54.7147 40.3113 54.8918 40.1056 55.0324 39.8921L54.1496 39.2046C53.884 39.5483 53.5506 39.8244 53.1496 40.0327C52.7486 40.241 52.2902 40.3452 51.7746 40.3452C51.384 40.3452 51.0272 40.2723 50.7043 40.1264C50.3814 39.9806 50.1027 39.7827 49.8683 39.5327C49.6392 39.2775 49.4569 38.9806 49.3215 38.6421C49.1913 38.3035 49.1183 37.9415 49.1027 37.5561H55.1418V36.9077C55.1418 36.3191 55.0663 35.7723 54.9152 35.2671C54.7694 34.7619 54.5454 34.3244 54.2433 33.9546C53.9413 33.5796 53.5611 33.2879 53.1027 33.0796C52.6496 32.866 52.1183 32.7592 51.509 32.7592C51.0246 32.7592 50.5506 32.8582 50.0871 33.0561C49.6288 33.254 49.2173 33.5405 48.8527 33.9155C48.4933 34.2853 48.2043 34.741 47.9855 35.2827C47.7668 35.8191 47.6574 36.4285 47.6574 37.1108V37.4389C47.6574 38.0275 47.7564 38.5717 47.9543 39.0717C48.1522 39.5717 48.4282 40.004 48.7824 40.3686C49.1366 40.7332 49.5611 41.0171 50.0558 41.2202ZM50.6808 34.1108C50.9413 34.0014 51.2173 33.9467 51.509 33.9467C51.8788 33.9467 52.1965 34.0145 52.4621 34.1499C52.7329 34.2853 52.9569 34.4624 53.134 34.6811C53.3111 34.8999 53.4439 35.1473 53.5324 35.4233C53.6262 35.6994 53.6808 35.978 53.6965 36.2592V36.3686H49.1496C49.2069 35.978 49.3058 35.6342 49.4465 35.3374C49.5923 35.0353 49.7694 34.7827 49.9777 34.5796C50.1861 34.3712 50.4204 34.215 50.6808 34.1108ZM58.9699 34.1655L58.8683 32.9155H57.5715V41.3686H59.0168V35.3061C59.2355 34.9103 59.5272 34.5926 59.8918 34.353C60.2616 34.1082 60.6887 33.9858 61.173 33.9858C61.4803 33.9858 61.7512 34.0223 61.9855 34.0952C62.2251 34.1681 62.4256 34.2853 62.5871 34.4467C62.7538 34.6082 62.8788 34.8191 62.9621 35.0796C63.0454 35.34 63.0871 35.6577 63.0871 36.0327V41.3686H64.5324V36.0014C64.5324 35.4389 64.4621 34.9546 64.3215 34.5483C64.1861 34.1369 63.9907 33.7983 63.7355 33.5327C63.4803 33.2671 63.1704 33.0717 62.8058 32.9467C62.4465 32.8217 62.0454 32.7592 61.6027 32.7592C61.0506 32.7645 60.5506 32.8921 60.1027 33.1421C59.6548 33.3869 59.2772 33.728 58.9699 34.1655ZM72.5949 40.9624C72.6314 41.1238 72.6782 41.2592 72.7355 41.3686H74.2433V41.2436C74.1496 41.0092 74.0767 40.7358 74.0246 40.4233C73.9725 40.1056 73.9465 39.8061 73.9465 39.5249V35.5952C73.9465 35.1212 73.8605 34.7072 73.6887 34.353C73.5168 33.9988 73.2798 33.7046 72.9777 33.4702C72.6808 33.2306 72.3267 33.0535 71.9152 32.9389C71.5038 32.8191 71.0585 32.7592 70.5793 32.7592C70.0532 32.7592 69.5819 32.8322 69.1652 32.978C68.7538 33.1238 68.4022 33.3165 68.1105 33.5561C67.8241 33.7905 67.6027 34.0561 67.4465 34.353C67.2954 34.6499 67.2173 34.952 67.2121 35.2592H68.6652C68.6652 35.0822 68.7069 34.9129 68.7902 34.7514C68.8788 34.5848 69.0012 34.4415 69.1574 34.3217C69.3137 34.202 69.5038 34.1056 69.7277 34.0327C69.9569 33.9598 70.2147 33.9233 70.5012 33.9233C70.8085 33.9233 71.0845 33.9624 71.3293 34.0405C71.5793 34.1186 71.7902 34.2306 71.9621 34.3764C72.134 34.5171 72.2668 34.6889 72.3605 34.8921C72.4543 35.0952 72.5012 35.3244 72.5012 35.5796V36.2436H70.923C70.3345 36.2436 69.8006 36.3009 69.3215 36.4155C68.8475 36.5301 68.4413 36.7046 68.1027 36.9389C67.7642 37.1681 67.5012 37.4572 67.3137 37.8061C67.1314 38.1551 67.0402 38.5613 67.0402 39.0249C67.0402 39.379 67.1079 39.7098 67.2433 40.0171C67.384 40.3191 67.5793 40.5822 67.8293 40.8061C68.0845 41.0249 68.3918 41.1994 68.7512 41.3296C69.1157 41.4598 69.522 41.5249 69.9699 41.5249C70.246 41.5249 70.5064 41.4962 70.7512 41.4389C70.996 41.3816 71.2251 41.3035 71.4387 41.2046C71.6574 41.1056 71.8553 40.991 72.0324 40.8608C72.2147 40.7306 72.3788 40.5926 72.5246 40.4467C72.5402 40.6238 72.5637 40.7957 72.5949 40.9624ZM70.9699 40.1577C70.7251 40.2306 70.4621 40.2671 70.1808 40.2671C69.8996 40.2671 69.6522 40.2306 69.4387 40.1577C69.2251 40.0848 69.048 39.9858 68.9074 39.8608C68.7668 39.7306 68.66 39.577 68.5871 39.3999C68.5194 39.2228 68.4855 39.0301 68.4855 38.8217C68.4855 38.2853 68.7199 37.8921 69.1887 37.6421C69.6574 37.3921 70.3137 37.2671 71.1574 37.2671H72.5012V38.978C72.4178 39.1447 72.3032 39.3061 72.1574 39.4624C72.0116 39.6134 71.8371 39.7488 71.634 39.8686C71.4361 39.9884 71.2147 40.0848 70.9699 40.1577ZM93.3605 39.3999C93.5637 38.9572 93.6991 38.4728 93.7668 37.9467H92.3215C92.2746 38.2905 92.1939 38.6108 92.0793 38.9077C91.9647 39.1994 91.8111 39.4546 91.6183 39.6733C91.4256 39.8869 91.1887 40.0535 90.9074 40.1733C90.6314 40.2931 90.3032 40.353 89.923 40.353C89.5741 40.353 89.2694 40.2983 89.009 40.1889C88.7486 40.0744 88.522 39.9207 88.3293 39.728C88.1366 39.5301 87.9777 39.3035 87.8527 39.0483C87.7277 38.7931 87.6262 38.5223 87.548 38.2358C87.4699 37.9441 87.4126 37.6499 87.3762 37.353C87.3449 37.0509 87.3293 36.7592 87.3293 36.478V34.8764C87.3293 34.5952 87.3449 34.3061 87.3762 34.0092C87.4126 33.7072 87.4699 33.4129 87.548 33.1264C87.6262 32.84 87.7277 32.5691 87.8527 32.3139C87.9829 32.0587 88.1418 31.8348 88.3293 31.6421C88.522 31.4494 88.7486 31.2983 89.009 31.1889C89.2746 31.0744 89.5793 31.0171 89.923 31.0171C90.3032 31.0171 90.6314 31.0822 90.9074 31.2124C91.1887 31.3374 91.4256 31.5119 91.6183 31.7358C91.8111 31.9598 91.9647 32.2202 92.0793 32.5171C92.1939 32.8139 92.2746 33.1342 92.3215 33.478H93.7668C93.7043 32.9363 93.5741 32.4415 93.3762 31.9936C93.1835 31.5457 92.9256 31.1629 92.6027 30.8452C92.2798 30.5223 91.8944 30.2749 91.4465 30.103C90.9986 29.9259 90.4907 29.8374 89.923 29.8374C89.4491 29.8374 89.022 29.9051 88.6418 30.0405C88.2616 30.1707 87.9204 30.353 87.6183 30.5874C87.3215 30.8218 87.0637 31.1004 86.8449 31.4233C86.6314 31.741 86.4517 32.0874 86.3058 32.4624C86.1652 32.8374 86.0585 33.2306 85.9855 33.6421C85.9178 34.0535 85.8814 34.4702 85.8762 34.8921V36.478C85.8814 36.8999 85.9178 37.3165 85.9855 37.728C86.0585 38.1395 86.1652 38.5327 86.3058 38.9077C86.4517 39.2827 86.6314 39.629 86.8449 39.9467C87.0637 40.2645 87.3215 40.5405 87.6183 40.7749C87.9204 41.0092 88.2616 41.1941 88.6418 41.3296C89.0272 41.4598 89.4543 41.5249 89.923 41.5249C90.4699 41.5249 90.9647 41.4389 91.4074 41.2671C91.8553 41.09 92.2407 40.8452 92.5637 40.5327C92.8918 40.215 93.1574 39.8374 93.3605 39.3999ZM100.556 32.9155H96.2355V34.1733H99.1105V40.1186H96.2355V41.3686H103.314V40.1186H100.556V32.9155ZM99.134 30.0952C98.9933 30.2566 98.923 30.4572 98.923 30.6968C98.923 30.9311 98.9933 31.1264 99.134 31.2827C99.2798 31.4389 99.4986 31.5171 99.7902 31.5171C100.077 31.5171 100.293 31.4389 100.439 31.2827C100.584 31.1264 100.657 30.9311 100.657 30.6968C100.657 30.4572 100.584 30.2566 100.439 30.0952C100.293 29.9285 100.077 29.8452 99.7902 29.8452C99.4986 29.8452 99.2798 29.9285 99.134 30.0952ZM109.04 32.9155V30.8686H107.587V32.9155H105.368V34.0327H107.587V38.6264C107.587 39.1473 107.655 39.5926 107.79 39.9624C107.931 40.327 108.121 40.6264 108.361 40.8608C108.6 41.09 108.881 41.2592 109.204 41.3686C109.532 41.4728 109.884 41.5249 110.259 41.5249C110.483 41.5249 110.707 41.5145 110.931 41.4936C111.16 41.4728 111.376 41.4415 111.579 41.3999C111.782 41.3634 111.97 41.3191 112.142 41.2671C112.314 41.2098 112.459 41.1447 112.579 41.0717L112.376 40.0483C112.288 40.0691 112.173 40.0952 112.032 40.1264C111.897 40.1525 111.749 40.1785 111.587 40.2046C111.431 40.2306 111.269 40.254 111.103 40.2749C110.936 40.2905 110.775 40.2983 110.618 40.2983C110.405 40.2983 110.202 40.2723 110.009 40.2202C109.821 40.1681 109.655 40.0796 109.509 39.9546C109.363 39.8244 109.249 39.6525 109.165 39.4389C109.082 39.2254 109.04 38.9546 109.04 38.6264V34.0327H112.259V32.9155H109.04ZM118.712 39.3921L118.337 38.3686L116.017 32.9155H114.4L118.04 40.9702L117.462 42.0952C117.41 42.1994 117.337 42.3322 117.243 42.4936C117.155 42.6551 117.045 42.8113 116.915 42.9624C116.79 43.1134 116.644 43.2436 116.478 43.353C116.316 43.4624 116.137 43.5171 115.939 43.5171C115.902 43.5171 115.853 43.5145 115.79 43.5092C115.728 43.5092 115.663 43.5066 115.595 43.5014C115.527 43.4962 115.462 43.491 115.4 43.4858C115.337 43.4806 115.288 43.478 115.251 43.478L115.017 44.6577C115.064 44.6681 115.124 44.6811 115.196 44.6967C115.269 44.7124 115.348 44.7254 115.431 44.7358C115.514 44.7514 115.598 44.7619 115.681 44.7671C115.764 44.7775 115.84 44.7827 115.907 44.7827C116.288 44.7827 116.624 44.7124 116.915 44.5717C117.207 44.4311 117.462 44.2566 117.681 44.0483C117.9 43.84 118.084 43.6134 118.236 43.3686C118.392 43.1238 118.519 42.8921 118.618 42.6733L122.907 32.9155H121.29L118.712 39.3921ZM141.407 39.3999C141.611 38.9572 141.746 38.4728 141.814 37.9467H140.368C140.321 38.2905 140.241 38.6108 140.126 38.9077C140.012 39.1994 139.858 39.4546 139.665 39.6733C139.473 39.8869 139.236 40.0535 138.954 40.1733C138.678 40.2931 138.35 40.353 137.97 40.353C137.621 40.353 137.316 40.2983 137.056 40.1889C136.795 40.0744 136.569 39.9207 136.376 39.728C136.183 39.5301 136.025 39.3035 135.9 39.0483C135.775 38.7931 135.673 38.5223 135.595 38.2358C135.517 37.9441 135.459 37.6499 135.423 37.353C135.392 37.0509 135.376 36.7592 135.376 36.478V34.8764C135.376 34.5952 135.392 34.3061 135.423 34.0092C135.459 33.7072 135.517 33.4129 135.595 33.1264C135.673 32.84 135.775 32.5691 135.9 32.3139C136.03 32.0587 136.189 31.8348 136.376 31.6421C136.569 31.4494 136.795 31.2983 137.056 31.1889C137.321 31.0744 137.626 31.0171 137.97 31.0171C138.35 31.0171 138.678 31.0822 138.954 31.2124C139.236 31.3374 139.473 31.5119 139.665 31.7358C139.858 31.9598 140.012 32.2202 140.126 32.5171C140.241 32.8139 140.321 33.1342 140.368 33.478H141.814C141.751 32.9363 141.621 32.4415 141.423 31.9936C141.23 31.5457 140.973 31.1629 140.65 30.8452C140.327 30.5223 139.941 30.2749 139.493 30.103C139.045 29.9259 138.538 29.8374 137.97 29.8374C137.496 29.8374 137.069 29.9051 136.689 30.0405C136.308 30.1707 135.967 30.353 135.665 30.5874C135.368 30.8218 135.111 31.1004 134.892 31.4233C134.678 31.741 134.499 32.0874 134.353 32.4624C134.212 32.8374 134.105 33.2306 134.032 33.6421C133.965 34.0535 133.928 34.4702 133.923 34.8921V36.478C133.928 36.8999 133.965 37.3165 134.032 37.728C134.105 38.1395 134.212 38.5327 134.353 38.9077C134.499 39.2827 134.678 39.629 134.892 39.9467C135.111 40.2645 135.368 40.5405 135.665 40.7749C135.967 41.0092 136.308 41.1941 136.689 41.3296C137.074 41.4598 137.501 41.5249 137.97 41.5249C138.517 41.5249 139.012 41.4389 139.454 41.2671C139.902 41.09 140.288 40.8452 140.611 40.5327C140.939 40.215 141.204 39.8374 141.407 39.3999ZM143.915 35.3686C143.738 35.8895 143.65 36.4546 143.65 37.0639V37.2358C143.65 37.8452 143.738 38.4103 143.915 38.9311C144.092 39.452 144.345 39.9051 144.673 40.2905C145.006 40.6759 145.41 40.978 145.884 41.1967C146.363 41.4155 146.902 41.5249 147.501 41.5249C148.095 41.5249 148.629 41.4155 149.103 41.1967C149.577 40.978 149.978 40.6759 150.306 40.2905C150.639 39.9051 150.894 39.452 151.071 38.9311C151.249 38.4103 151.337 37.8452 151.337 37.2358V37.0639C151.337 36.4546 151.249 35.8895 151.071 35.3686C150.894 34.8426 150.639 34.3869 150.306 34.0014C149.978 33.616 149.574 33.3139 149.095 33.0952C148.621 32.8712 148.084 32.7592 147.486 32.7592C146.892 32.7592 146.358 32.8712 145.884 33.0952C145.41 33.3139 145.006 33.616 144.673 34.0014C144.345 34.3869 144.092 34.8426 143.915 35.3686ZM145.243 38.4311C145.144 38.0509 145.095 37.6525 145.095 37.2358V37.0639C145.095 36.6525 145.144 36.2592 145.243 35.8842C145.342 35.504 145.491 35.1707 145.689 34.8842C145.892 34.5978 146.142 34.3712 146.439 34.2046C146.736 34.0327 147.084 33.9467 147.486 33.9467C147.887 33.9467 148.236 34.0327 148.532 34.2046C148.834 34.3712 149.084 34.5978 149.282 34.8842C149.486 35.1707 149.637 35.504 149.736 35.8842C149.84 36.2592 149.892 36.6525 149.892 37.0639V37.2358C149.892 37.6525 149.842 38.0509 149.743 38.4311C149.644 38.8061 149.493 39.1369 149.29 39.4233C149.092 39.7098 148.842 39.9363 148.54 40.103C148.243 40.2697 147.897 40.353 147.501 40.353C147.1 40.353 146.749 40.2697 146.446 40.103C146.144 39.9363 145.892 39.7098 145.689 39.4233C145.491 39.1369 145.342 38.8061 145.243 38.4311ZM158.212 29.3686H153.892V30.6264H156.767V40.1186H153.892V41.3686H160.97V40.1186H158.212V29.3686ZM167.821 29.3686H163.501V30.6264H166.376V40.1186H163.501V41.3686H170.579V40.1186H167.821V29.3686ZM174.978 41.2202C175.478 41.4233 176.025 41.5249 176.618 41.5249C177.03 41.5249 177.41 41.478 177.759 41.3842C178.108 41.2957 178.42 41.1759 178.696 41.0249C178.973 40.8738 179.215 40.702 179.423 40.5092C179.637 40.3113 179.814 40.1056 179.954 39.8921L179.071 39.2046C178.806 39.5483 178.473 39.8244 178.071 40.0327C177.67 40.241 177.212 40.3452 176.696 40.3452C176.306 40.3452 175.949 40.2723 175.626 40.1264C175.303 39.9806 175.025 39.7827 174.79 39.5327C174.561 39.2775 174.379 38.9806 174.243 38.6421C174.113 38.3035 174.04 37.9415 174.025 37.5561H180.064V36.9077C180.064 36.3191 179.988 35.7723 179.837 35.2671C179.691 34.7619 179.467 34.3244 179.165 33.9546C178.863 33.5796 178.483 33.2879 178.025 33.0796C177.571 32.866 177.04 32.7592 176.431 32.7592C175.946 32.7592 175.473 32.8582 175.009 33.0561C174.551 33.254 174.139 33.5405 173.775 33.9155C173.415 34.2853 173.126 34.741 172.907 35.2827C172.689 35.8191 172.579 36.4285 172.579 37.1108V37.4389C172.579 38.0275 172.678 38.5717 172.876 39.0717C173.074 39.5717 173.35 40.004 173.704 40.3686C174.058 40.7332 174.483 41.0171 174.978 41.2202ZM175.603 34.1108C175.863 34.0014 176.139 33.9467 176.431 33.9467C176.801 33.9467 177.118 34.0145 177.384 34.1499C177.655 34.2853 177.879 34.4624 178.056 34.6811C178.233 34.8999 178.366 35.1473 178.454 35.4233C178.548 35.6994 178.603 35.978 178.618 36.2592V36.3686H174.071C174.129 35.978 174.228 35.6342 174.368 35.3374C174.514 35.0353 174.691 34.7827 174.9 34.5796C175.108 34.3712 175.342 34.215 175.603 34.1108ZM182.454 35.3374C182.303 35.8634 182.228 36.4415 182.228 37.0717V37.2358C182.228 37.84 182.306 38.4051 182.462 38.9311C182.618 39.452 182.84 39.9051 183.126 40.2905C183.418 40.6759 183.772 40.978 184.189 41.1967C184.605 41.4155 185.071 41.5249 185.587 41.5249C186.092 41.5249 186.535 41.4415 186.915 41.2749C187.301 41.103 187.634 40.8556 187.915 40.5327V41.2592C187.915 41.6238 187.863 41.9467 187.759 42.228C187.655 42.5092 187.504 42.7436 187.306 42.9311C187.113 43.1238 186.879 43.2697 186.603 43.3686C186.327 43.4676 186.017 43.5171 185.673 43.5171C185.48 43.5171 185.288 43.4962 185.095 43.4546C184.902 43.4181 184.709 43.3556 184.517 43.2671C184.324 43.1785 184.134 43.0587 183.946 42.9077C183.759 42.7619 183.577 42.5822 183.4 42.3686L182.65 43.2358C182.842 43.5119 183.071 43.7436 183.337 43.9311C183.608 44.1186 183.887 44.2671 184.173 44.3764C184.465 44.491 184.751 44.5717 185.032 44.6186C185.314 44.6707 185.564 44.6967 185.782 44.6967C186.314 44.6967 186.798 44.6186 187.236 44.4624C187.673 44.3061 188.048 44.077 188.361 43.7749C188.678 43.4728 188.923 43.1056 189.095 42.6733C189.272 42.241 189.361 41.7462 189.361 41.1889V32.9155H188.048L187.978 33.8374C187.702 33.4884 187.366 33.2228 186.97 33.0405C186.579 32.853 186.124 32.7592 185.603 32.7592C185.077 32.7592 184.605 32.866 184.189 33.0796C183.772 33.2931 183.418 33.59 183.126 33.9702C182.834 34.3504 182.611 34.8061 182.454 35.3374ZM183.798 38.4077C183.715 38.0379 183.673 37.6473 183.673 37.2358V37.0717C183.673 36.6603 183.715 36.2697 183.798 35.8999C183.887 35.5249 184.022 35.1967 184.204 34.9155C184.392 34.629 184.629 34.4025 184.915 34.2358C185.207 34.0691 185.556 33.9858 185.962 33.9858C186.202 33.9858 186.42 34.0171 186.618 34.0796C186.816 34.1369 186.996 34.2202 187.157 34.3296C187.319 34.4337 187.462 34.5587 187.587 34.7046C187.712 34.8504 187.821 35.0119 187.915 35.1889V39.0639C187.821 39.2462 187.712 39.4129 187.587 39.5639C187.462 39.715 187.319 39.8452 187.157 39.9546C187.001 40.0639 186.821 40.1499 186.618 40.2124C186.42 40.2697 186.196 40.2983 185.946 40.2983C185.545 40.2983 185.202 40.2176 184.915 40.0561C184.629 39.8895 184.392 39.6655 184.204 39.3842C184.022 39.103 183.887 38.7775 183.798 38.4077ZM194.196 41.2202C194.696 41.4233 195.243 41.5249 195.837 41.5249C196.249 41.5249 196.629 41.478 196.978 41.3842C197.327 41.2957 197.639 41.1759 197.915 41.0249C198.191 40.8738 198.433 40.702 198.642 40.5092C198.855 40.3113 199.032 40.1056 199.173 39.8921L198.29 39.2046C198.025 39.5483 197.691 39.8244 197.29 40.0327C196.889 40.241 196.431 40.3452 195.915 40.3452C195.525 40.3452 195.168 40.2723 194.845 40.1264C194.522 39.9806 194.243 39.7827 194.009 39.5327C193.78 39.2775 193.598 38.9806 193.462 38.6421C193.332 38.3035 193.259 37.9415 193.243 37.5561H199.282V36.9077C199.282 36.3191 199.207 35.7723 199.056 35.2671C198.91 34.7619 198.686 34.3244 198.384 33.9546C198.082 33.5796 197.702 33.2879 197.243 33.0796C196.79 32.866 196.259 32.7592 195.65 32.7592C195.165 32.7592 194.691 32.8582 194.228 33.0561C193.769 33.254 193.358 33.5405 192.993 33.9155C192.634 34.2853 192.345 34.741 192.126 35.2827C191.907 35.8191 191.798 36.4285 191.798 37.1108V37.4389C191.798 38.0275 191.897 38.5717 192.095 39.0717C192.293 39.5717 192.569 40.004 192.923 40.3686C193.277 40.7332 193.702 41.0171 194.196 41.2202ZM194.821 34.1108C195.082 34.0014 195.358 33.9467 195.65 33.9467C196.019 33.9467 196.337 34.0145 196.603 34.1499C196.874 34.2853 197.098 34.4624 197.275 34.6811C197.452 34.8999 197.584 35.1473 197.673 35.4233C197.767 35.6994 197.821 35.978 197.837 36.2592V36.3686H193.29C193.348 35.978 193.446 35.6342 193.587 35.3374C193.733 35.0353 193.91 34.7827 194.118 34.5796C194.327 34.3712 194.561 34.215 194.821 34.1108Z" fill="white"/>
</svg>
