<svg width="201" height="35" viewBox="0 0 201 35" fill="none" xmlns="http://www.w3.org/2000/svg">
<path fill-rule="evenodd" clip-rule="evenodd" d="M3.572 2.264H0.926V14H8.792V11.768H3.572V2.264ZM11.161 7.574C10.909 8.15 10.783 8.804 10.783 9.536C10.783 10.28 10.909 10.94 11.161 11.516C11.425 12.092 11.779 12.584 12.223 12.992C12.667 13.388 13.189 13.694 13.789 13.91C14.389 14.114 15.037 14.216 15.733 14.216C16.333 14.216 16.945 14.126 17.569 13.946C18.193 13.754 18.757 13.496 19.261 13.172L18.397 11.588C18.001 11.792 17.617 11.948 17.245 12.056C16.885 12.152 16.501 12.2 16.093 12.2C15.433 12.2 14.857 12.056 14.365 11.768C13.885 11.468 13.597 10.982 13.501 10.31H19.513C19.537 10.202 19.561 10.04 19.585 9.824C19.609 9.608 19.621 9.38 19.621 9.14C19.621 8.528 19.531 7.964 19.351 7.448C19.171 6.92 18.907 6.464 18.559 6.08C18.211 5.696 17.773 5.396 17.245 5.18C16.717 4.964 16.111 4.856 15.427 4.856C14.827 4.856 14.245 4.964 13.681 5.18C13.129 5.396 12.637 5.708 12.205 6.116C11.773 6.512 11.425 6.998 11.161 7.574ZM16.813 7.34C17.089 7.652 17.227 8.06 17.227 8.564H13.465C13.585 7.988 13.831 7.562 14.203 7.286C14.575 7.01 15.001 6.872 15.481 6.872C16.093 6.872 16.537 7.028 16.813 7.34ZM22.0079 10.202C21.7919 10.574 21.6839 11.012 21.6839 11.516C21.6839 11.9 21.7499 12.254 21.8819 12.578C22.0259 12.902 22.2239 13.19 22.4759 13.442C22.7279 13.682 23.0339 13.868 23.3939 14C23.7539 14.144 24.1619 14.216 24.6179 14.216C25.1939 14.216 25.7519 14.102 26.2919 13.874C26.8319 13.634 27.3299 13.34 27.7859 12.992H27.8579L28.0559 14H30.2159V8.888C30.2159 7.52 29.8559 6.506 29.1359 5.846C28.4159 5.186 27.4319 4.856 26.1839 4.856C25.4159 4.856 24.6779 4.97 23.9699 5.198C23.2739 5.426 22.6199 5.714 22.0079 6.062L22.9439 7.79C23.4479 7.538 23.9159 7.34 24.3479 7.196C24.7919 7.04 25.2299 6.962 25.6619 6.962C26.2739 6.962 26.7299 7.076 27.0299 7.304C27.3419 7.532 27.5219 7.85 27.5699 8.258C26.5139 8.318 25.6139 8.432 24.8699 8.6C24.1259 8.756 23.5139 8.966 23.0339 9.23C22.5659 9.494 22.2239 9.818 22.0079 10.202ZM24.5459 11.966C24.3299 11.822 24.2219 11.606 24.2219 11.318C24.2219 11.126 24.2699 10.946 24.3659 10.778C24.4739 10.61 24.6539 10.466 24.9059 10.346C25.1579 10.214 25.4999 10.106 25.9319 10.022C26.3639 9.938 26.9099 9.878 27.5699 9.842V11.318C27.2579 11.558 26.9279 11.762 26.5799 11.93C26.2319 12.086 25.8599 12.164 25.4639 12.164C25.0799 12.164 24.7739 12.098 24.5459 11.966ZM32.5489 7.574C32.3329 8.15 32.2249 8.804 32.2249 9.536C32.2249 10.268 32.3149 10.922 32.4949 11.498C32.6749 12.074 32.9269 12.566 33.2509 12.974C33.5869 13.37 33.9829 13.676 34.4389 13.892C34.9069 14.108 35.4229 14.216 35.9869 14.216C36.4429 14.216 36.8869 14.108 37.3189 13.892C37.7509 13.676 38.1349 13.406 38.4709 13.082H38.5249L38.7229 14H40.8829V1.382H38.2369V4.424L38.3269 5.81C38.0149 5.522 37.6849 5.294 37.3369 5.126C36.9889 4.946 36.5569 4.856 36.0409 4.856C35.5489 4.856 35.0749 4.964 34.6189 5.18C34.1629 5.396 33.7549 5.708 33.3949 6.116C33.0469 6.512 32.7649 6.998 32.5489 7.574ZM35.3929 11.444C35.0929 11.036 34.9429 10.388 34.9429 9.5C34.9429 8.66 35.1169 8.036 35.4649 7.628C35.8249 7.22 36.2509 7.016 36.7429 7.016C37.0069 7.016 37.2589 7.064 37.4989 7.16C37.7509 7.244 37.9969 7.394 38.2369 7.61V11.228C37.9969 11.528 37.7509 11.744 37.4989 11.876C37.2469 11.996 36.9709 12.056 36.6709 12.056C36.1189 12.056 35.6929 11.852 35.3929 11.444ZM43.5399 7.574C43.2879 8.15 43.1619 8.804 43.1619 9.536C43.1619 10.28 43.2879 10.94 43.5399 11.516C43.8039 12.092 44.1579 12.584 44.6019 12.992C45.0459 13.388 45.5679 13.694 46.1679 13.91C46.7679 14.114 47.4159 14.216 48.1119 14.216C48.7119 14.216 49.3239 14.126 49.9479 13.946C50.5719 13.754 51.1359 13.496 51.6399 13.172L50.7759 11.588C50.3799 11.792 49.9959 11.948 49.6239 12.056C49.2639 12.152 48.8799 12.2 48.4719 12.2C47.8119 12.2 47.2359 12.056 46.7439 11.768C46.2639 11.468 45.9759 10.982 45.8799 10.31H51.8919C51.9159 10.202 51.9399 10.04 51.9639 9.824C51.9879 9.608 51.9999 9.38 51.9999 9.14C51.9999 8.528 51.9099 7.964 51.7299 7.448C51.5499 6.92 51.2859 6.464 50.9379 6.08C50.5899 5.696 50.1519 5.396 49.6239 5.18C49.0959 4.964 48.4899 4.856 47.8059 4.856C47.2059 4.856 46.6239 4.964 46.0599 5.18C45.5079 5.396 45.0159 5.708 44.5839 6.116C44.1519 6.512 43.8039 6.998 43.5399 7.574ZM49.1919 7.34C49.4679 7.652 49.6059 8.06 49.6059 8.564H45.8439C45.9639 7.988 46.2099 7.562 46.5819 7.286C46.9539 7.01 47.3799 6.872 47.8599 6.872C48.4719 6.872 48.9159 7.028 49.1919 7.34ZM57.2128 5.072H55.0528V14H57.6988V9.356C58.0828 8.552 58.5388 7.988 59.0668 7.664C59.6068 7.34 60.1528 7.178 60.7048 7.178C61.0408 7.178 61.3168 7.202 61.5328 7.25C61.7608 7.286 62.0128 7.346 62.2888 7.43L62.8288 5.216C62.5648 5.096 62.3068 5.006 62.0548 4.946C61.8148 4.886 61.4968 4.856 61.1008 4.856C60.3808 4.856 59.7088 5.036 59.0848 5.396C58.4608 5.744 57.9268 6.284 57.4828 7.016H57.4288L57.2128 5.072ZM67.4478 11.966C66.9318 11.774 66.4158 11.516 65.8998 11.192L64.7118 12.848C65.2878 13.232 65.9598 13.556 66.7278 13.82C67.4958 14.084 68.2818 14.216 69.0858 14.216C69.8058 14.216 70.4358 14.144 70.9758 14C71.5278 13.844 71.9838 13.64 72.3438 13.388C72.7158 13.124 72.9978 12.818 73.1898 12.47C73.3818 12.122 73.4778 11.744 73.4778 11.336C73.4778 10.952 73.3878 10.616 73.2078 10.328C73.0278 10.04 72.7878 9.794 72.4878 9.59C72.1878 9.386 71.8398 9.212 71.4438 9.068C71.0478 8.912 70.6278 8.774 70.1838 8.654C69.8718 8.57 69.5718 8.492 69.2838 8.42C69.0078 8.336 68.7678 8.252 68.5638 8.168C68.3598 8.084 68.1978 7.988 68.0778 7.88C67.9578 7.772 67.8978 7.652 67.8978 7.52C67.8978 7.292 68.0118 7.118 68.2398 6.998C68.4798 6.878 68.8818 6.818 69.4458 6.818C69.9138 6.818 70.3638 6.902 70.7958 7.07C71.2278 7.226 71.6478 7.424 72.0558 7.664L73.2438 6.08C72.7758 5.78 72.2118 5.504 71.5518 5.252C70.9038 4.988 70.1838 4.856 69.3918 4.856C68.7558 4.856 68.1798 4.928 67.6638 5.072C67.1598 5.204 66.7278 5.39 66.3678 5.63C66.0198 5.87 65.7498 6.164 65.5578 6.512C65.3658 6.86 65.2698 7.238 65.2698 7.646C65.2698 8.006 65.3598 8.324 65.5398 8.6C65.7318 8.876 65.9778 9.122 66.2778 9.338C66.5778 9.542 66.9138 9.722 67.2858 9.878C67.6698 10.022 68.0598 10.148 68.4558 10.256C69.1758 10.46 69.7518 10.652 70.1838 10.832C70.6278 11 70.8498 11.222 70.8498 11.498C70.8498 11.738 70.7178 11.924 70.4538 12.056C70.1898 12.188 69.7518 12.254 69.1398 12.254C68.5398 12.254 67.9758 12.158 67.4478 11.966ZM78.4928 1.382H75.8468V14H78.4928V8.042C78.8048 7.73 79.0928 7.496 79.3568 7.34C79.6328 7.184 79.9508 7.106 80.3108 7.106C80.8028 7.106 81.1448 7.244 81.3368 7.52C81.5288 7.796 81.6248 8.234 81.6248 8.834V14H84.2708V8.492C84.2708 7.364 84.0368 6.476 83.5688 5.828C83.1128 5.18 82.3808 4.856 81.3728 4.856C81.0368 4.856 80.7188 4.892 80.4188 4.964C80.1308 5.036 79.8608 5.138 79.6088 5.27C79.3688 5.39 79.1408 5.534 78.9248 5.702C78.7208 5.858 78.5288 6.02 78.3488 6.188L78.4928 4.478V1.382ZM92.9938 5.072H86.7657V7.142H90.3477V14H92.9938V5.072ZM90.2757 3.326C90.6117 3.614 91.0378 3.758 91.5537 3.758C92.0697 3.758 92.4898 3.614 92.8138 3.326C93.1497 3.038 93.3177 2.648 93.3177 2.156C93.3177 1.664 93.1497 1.268 92.8138 0.967999C92.4898 0.655999 92.0697 0.499999 91.5537 0.499999C91.0378 0.499999 90.6117 0.655999 90.2757 0.967999C89.9518 1.268 89.7897 1.664 89.7897 2.156C89.7897 2.648 89.9518 3.038 90.2757 3.326ZM100.079 17.312V14.702L99.9887 13.244C100.661 13.892 101.405 14.216 102.221 14.216C102.725 14.216 103.205 14.108 103.661 13.892C104.129 13.676 104.543 13.364 104.903 12.956C105.263 12.536 105.551 12.032 105.767 11.444C105.983 10.844 106.091 10.16 106.091 9.392C106.091 8.708 106.007 8.09 105.839 7.538C105.683 6.974 105.449 6.494 105.137 6.098C104.825 5.702 104.447 5.396 104.003 5.18C103.559 4.964 103.061 4.856 102.509 4.856C102.029 4.856 101.555 4.964 101.087 5.18C100.619 5.384 100.205 5.648 99.8447 5.972H99.7907L99.5927 5.072H97.4327V17.312H100.079ZM100.853 11.93C100.589 11.834 100.331 11.678 100.079 11.462V7.844C100.619 7.292 101.171 7.016 101.735 7.016C102.827 7.016 103.373 7.82 103.373 9.428C103.373 10.352 103.205 11.024 102.869 11.444C102.533 11.852 102.113 12.056 101.609 12.056C101.381 12.056 101.129 12.014 100.853 11.93ZM121.791 11.768H119.055V14H127.191V11.768H124.455V4.496H127.191V2.264H119.055V4.496H121.791V11.768ZM131.972 5.072H129.812V14H132.458V8.042C132.77 7.73 133.058 7.496 133.322 7.34C133.598 7.184 133.916 7.106 134.276 7.106C134.768 7.106 135.11 7.244 135.302 7.52C135.494 7.796 135.59 8.234 135.59 8.834V14H138.236V8.492C138.236 7.364 138.002 6.476 137.534 5.828C137.066 5.18 136.328 4.856 135.32 4.856C134.648 4.856 134.06 4.994 133.556 5.27C133.064 5.546 132.626 5.876 132.242 6.26H132.17L131.972 5.072ZM150.66 4.496H154.17V14H156.834V4.496H160.344V2.264H150.66V4.496ZM162.263 7.574C162.011 8.15 161.885 8.804 161.885 9.536C161.885 10.28 162.011 10.94 162.263 11.516C162.527 12.092 162.881 12.584 163.325 12.992C163.769 13.388 164.291 13.694 164.891 13.91C165.491 14.114 166.139 14.216 166.835 14.216C167.435 14.216 168.047 14.126 168.671 13.946C169.295 13.754 169.859 13.496 170.363 13.172L169.499 11.588C169.103 11.792 168.719 11.948 168.347 12.056C167.987 12.152 167.603 12.2 167.195 12.2C166.535 12.2 165.959 12.056 165.467 11.768C164.987 11.468 164.699 10.982 164.603 10.31H170.615C170.639 10.202 170.663 10.04 170.687 9.824C170.711 9.608 170.723 9.38 170.723 9.14C170.723 8.528 170.633 7.964 170.453 7.448C170.273 6.92 170.009 6.464 169.661 6.08C169.313 5.696 168.875 5.396 168.347 5.18C167.819 4.964 167.213 4.856 166.529 4.856C165.929 4.856 165.347 4.964 164.783 5.18C164.231 5.396 163.739 5.708 163.307 6.116C162.875 6.512 162.527 6.998 162.263 7.574ZM166.583 6.872C167.195 6.872 167.639 7.028 167.915 7.34C168.191 7.652 168.329 8.06 168.329 8.564H164.567C164.687 7.988 164.933 7.562 165.305 7.286C165.677 7.01 166.103 6.872 166.583 6.872ZM173.307 7.556C173.031 8.132 172.893 8.792 172.893 9.536C172.893 10.28 173.02 10.946 173.271 11.534C173.523 12.11 173.872 12.596 174.316 12.992C174.771 13.388 175.299 13.694 175.9 13.91C176.499 14.114 177.154 14.216 177.861 14.216C178.473 14.216 179.104 14.114 179.751 13.91C180.411 13.694 181.012 13.358 181.551 12.902L180.471 11.228C180.16 11.456 179.805 11.654 179.41 11.822C179.014 11.99 178.581 12.074 178.113 12.074C177.37 12.074 176.764 11.846 176.296 11.39C175.839 10.934 175.611 10.316 175.611 9.536C175.611 8.756 175.852 8.138 176.331 7.682C176.811 7.226 177.436 6.998 178.204 6.998C178.863 6.998 179.523 7.232 180.184 7.7L181.408 6.062C181.023 5.714 180.544 5.426 179.967 5.198C179.404 4.97 178.768 4.856 178.059 4.856C177.376 4.856 176.721 4.964 176.098 5.18C175.473 5.384 174.921 5.684 174.441 6.08C173.973 6.476 173.596 6.968 173.307 7.556ZM186.422 1.382H183.776V14H186.422V8.042C186.734 7.73 187.022 7.496 187.286 7.34C187.562 7.184 187.88 7.106 188.24 7.106C188.732 7.106 189.074 7.244 189.266 7.52C189.458 7.796 189.554 8.234 189.554 8.834V14H192.2V8.492C192.2 7.364 191.966 6.476 191.498 5.828C191.042 5.18 190.31 4.856 189.302 4.856C188.966 4.856 188.648 4.892 188.348 4.964C188.06 5.036 187.79 5.138 187.538 5.27C187.298 5.39 187.07 5.534 186.854 5.702C186.65 5.858 186.458 6.02 186.278 6.188L186.422 4.478V1.382ZM196.729 5.468C196.633 5.72 196.585 5.996 196.585 6.296C196.585 6.896 196.777 7.4 197.161 7.808C197.545 8.204 198.049 8.402 198.673 8.402C199.297 8.402 199.801 8.204 200.185 7.808C200.569 7.4 200.761 6.896 200.761 6.296C200.761 5.996 200.707 5.72 200.599 5.468C200.503 5.204 200.365 4.976 200.185 4.784C200.005 4.592 199.783 4.442 199.519 4.334C199.267 4.226 198.985 4.172 198.673 4.172C198.361 4.172 198.073 4.226 197.809 4.334C197.557 4.442 197.341 4.592 197.161 4.784C196.981 4.976 196.837 5.204 196.729 5.468ZM196.729 11.282C196.633 11.534 196.585 11.81 196.585 12.11C196.585 12.71 196.777 13.214 197.161 13.622C197.545 14.018 198.049 14.216 198.673 14.216C199.297 14.216 199.801 14.018 200.185 13.622C200.569 13.214 200.761 12.71 200.761 12.11C200.761 11.81 200.707 11.534 200.599 11.282C200.503 11.018 200.365 10.79 200.185 10.598C200.005 10.406 199.783 10.256 199.519 10.148C199.267 10.04 198.985 9.986 198.673 9.986C198.361 9.986 198.073 10.04 197.809 10.148C197.557 10.256 197.341 10.406 197.161 10.598C196.981 10.79 196.837 11.018 196.729 11.282ZM1.9375 31V26.4375H4.17969C4.6901 26.4323 5.17188 26.3542 5.625 26.2031C6.08333 26.0521 6.48438 25.8333 6.82812 25.5469C7.17188 25.2604 7.44271 24.9089 7.64062 24.4922C7.84375 24.0703 7.94531 23.5859 7.94531 23.0391C7.94531 22.4922 7.84375 22.0078 7.64062 21.5859C7.44271 21.1641 7.17188 20.8099 6.82812 20.5234C6.48438 20.237 6.08333 20.0182 5.625 19.8672C5.17188 19.7161 4.6901 19.6354 4.17969 19.625H0.492188V31H1.9375ZM4.17969 25.25H1.9375V20.8125H4.17969C4.51302 20.8177 4.82031 20.8724 5.10156 20.9766C5.38802 21.0807 5.63281 21.2292 5.83594 21.4219C6.04427 21.6146 6.20573 21.849 6.32031 22.125C6.4401 22.401 6.5 22.7109 6.5 23.0547C6.5 23.3984 6.4401 23.7057 6.32031 23.9766C6.20573 24.2422 6.04427 24.4687 5.83594 24.6562C5.6276 24.8437 5.38281 24.9896 5.10156 25.0937C4.82031 25.1927 4.51302 25.2448 4.17969 25.25ZM15.3828 30.5937C15.4193 30.7552 15.4661 30.8906 15.5234 31H17.0312V30.875C16.9375 30.6406 16.8646 30.3672 16.8125 30.0547C16.7604 29.737 16.7344 29.4375 16.7344 29.1562V25.2266C16.7344 24.7526 16.6484 24.3385 16.4766 23.9844C16.3047 23.6302 16.0677 23.3359 15.7656 23.1016C15.4688 22.862 15.1146 22.6849 14.7031 22.5703C14.2917 22.4505 13.8464 22.3906 13.3672 22.3906C12.8411 22.3906 12.3698 22.4635 11.9531 22.6094C11.5417 22.7552 11.1901 22.9479 10.8984 23.1875C10.612 23.4219 10.3906 23.6875 10.2344 23.9844C10.0833 24.2812 10.0052 24.5833 10 24.8906H11.4531C11.4531 24.7135 11.4948 24.5443 11.5781 24.3828C11.6667 24.2161 11.7891 24.0729 11.9453 23.9531C12.1016 23.8333 12.2917 23.737 12.5156 23.6641C12.7448 23.5911 13.0026 23.5547 13.2891 23.5547C13.5964 23.5547 13.8724 23.5937 14.1172 23.6719C14.3672 23.75 14.5781 23.862 14.75 24.0078C14.9219 24.1484 15.0547 24.3203 15.1484 24.5234C15.2422 24.7266 15.2891 24.9557 15.2891 25.2109V25.875H13.7109C13.1224 25.875 12.5885 25.9323 12.1094 26.0469C11.6354 26.1615 11.2292 26.3359 10.8906 26.5703C10.5521 26.7995 10.2891 27.0885 10.1016 27.4375C9.91927 27.7865 9.82812 28.1927 9.82812 28.6562C9.82812 29.0104 9.89583 29.3411 10.0312 29.6484C10.1719 29.9505 10.3672 30.2135 10.6172 30.4375C10.8724 30.6562 11.1797 30.8307 11.5391 30.9609C11.9036 31.0911 12.3099 31.1562 12.7578 31.1562C13.0339 31.1562 13.2943 31.1276 13.5391 31.0703C13.7839 31.013 14.013 30.9349 14.2266 30.8359C14.4453 30.737 14.6432 30.6224 14.8203 30.4922C15.0026 30.362 15.1667 30.224 15.3125 30.0781C15.3281 30.2552 15.3516 30.4271 15.3828 30.5937ZM13.7578 29.7891C13.513 29.862 13.25 29.8984 12.9688 29.8984C12.6875 29.8984 12.4401 29.862 12.2266 29.7891C12.013 29.7161 11.8359 29.6172 11.6953 29.4922C11.5547 29.362 11.4479 29.2083 11.375 29.0312C11.3073 28.8542 11.2734 28.6615 11.2734 28.4531C11.2734 27.9167 11.5078 27.5234 11.9766 27.2734C12.4453 27.0234 13.1016 26.8984 13.9453 26.8984H15.2891V28.6094C15.2057 28.776 15.0911 28.9375 14.9453 29.0937C14.7995 29.2448 14.625 29.3802 14.4219 29.5C14.224 29.6198 14.0026 29.7161 13.7578 29.7891ZM25.0938 28.2969C25.1615 28.4323 25.1953 28.5859 25.1953 28.7578C25.1901 29.1276 25.0104 29.4245 24.6562 29.6484C24.3021 29.8724 23.8203 29.9844 23.2109 29.9844C22.9661 29.9844 22.7188 29.9583 22.4688 29.9062C22.2188 29.8542 21.9896 29.7656 21.7812 29.6406C21.5781 29.5156 21.4062 29.3516 21.2656 29.1484C21.1302 28.9453 21.0521 28.6953 21.0312 28.3984H19.5859C19.5859 28.7578 19.6667 29.1042 19.8281 29.4375C19.9948 29.7708 20.2318 30.0651 20.5391 30.3203C20.8516 30.5703 21.2318 30.7734 21.6797 30.9297C22.1276 31.0807 22.638 31.1562 23.2109 31.1562C23.7109 31.1562 24.1719 31.0964 24.5938 30.9766C25.0156 30.8568 25.3776 30.6875 25.6797 30.4687C25.9818 30.25 26.2161 29.987 26.3828 29.6797C26.5547 29.3724 26.6406 29.0312 26.6406 28.6562C26.6406 28.3073 26.5651 28 26.4141 27.7344C26.2682 27.4687 26.0547 27.237 25.7734 27.0391C25.4922 26.8359 25.1458 26.6641 24.7344 26.5234C24.3229 26.3776 23.8568 26.25 23.3359 26.1406C22.9401 26.0625 22.612 25.9818 22.3516 25.8984C22.0964 25.8151 21.8906 25.7214 21.7344 25.6172C21.5833 25.513 21.4766 25.3958 21.4141 25.2656C21.3516 25.1354 21.3203 24.987 21.3203 24.8203C21.3203 24.6589 21.3594 24.5026 21.4375 24.3516C21.5156 24.2005 21.6302 24.0677 21.7812 23.9531C21.9375 23.8385 22.1302 23.7474 22.3594 23.6797C22.5938 23.612 22.8646 23.5781 23.1719 23.5781C23.4688 23.5781 23.7344 23.6198 23.9688 23.7031C24.2083 23.7865 24.4115 23.8958 24.5781 24.0312C24.7448 24.1667 24.875 24.3229 24.9688 24.5C25.0625 24.6719 25.1094 24.849 25.1094 25.0312H26.5547C26.5547 24.6615 26.474 24.3177 26.3125 24C26.1562 23.6771 25.9323 23.3958 25.6406 23.1562C25.349 22.9167 24.9948 22.7292 24.5781 22.5937C24.1615 22.4583 23.6927 22.3906 23.1719 22.3906C22.6875 22.3906 22.2422 22.4557 21.8359 22.5859C21.4349 22.7161 21.0885 22.8932 20.7969 23.1172C20.5052 23.3411 20.2786 23.6042 20.1172 23.9062C19.9557 24.2031 19.875 24.5234 19.875 24.8672C19.875 25.2161 19.9531 25.5234 20.1094 25.7891C20.2656 26.0495 20.4844 26.2786 20.7656 26.4766C21.0521 26.6693 21.3932 26.8359 21.7891 26.9766C22.1901 27.1172 22.6328 27.237 23.1172 27.3359C23.513 27.4141 23.8438 27.5026 24.1094 27.6016C24.375 27.6953 24.5885 27.7995 24.75 27.9141C24.9115 28.0286 25.026 28.1562 25.0938 28.2969ZM34.6016 30.5937C34.638 30.7552 34.6849 30.8906 34.7422 31H36.25V30.875C36.1562 30.6406 36.0833 30.3672 36.0312 30.0547C35.9792 29.737 35.9531 29.4375 35.9531 29.1562V25.2266C35.9531 24.7526 35.8672 24.3385 35.6953 23.9844C35.5234 23.6302 35.2865 23.3359 34.9844 23.1016C34.6875 22.862 34.3333 22.6849 33.9219 22.5703C33.5104 22.4505 33.0651 22.3906 32.5859 22.3906C32.0599 22.3906 31.5885 22.4635 31.1719 22.6094C30.7604 22.7552 30.4089 22.9479 30.1172 23.1875C29.8307 23.4219 29.6094 23.6875 29.4531 23.9844C29.3021 24.2812 29.224 24.5833 29.2188 24.8906H30.6719C30.6719 24.7135 30.7135 24.5443 30.7969 24.3828C30.8854 24.2161 31.0078 24.0729 31.1641 23.9531C31.3203 23.8333 31.5104 23.737 31.7344 23.6641C31.9635 23.5911 32.2214 23.5547 32.5078 23.5547C32.8151 23.5547 33.0911 23.5937 33.3359 23.6719C33.5859 23.75 33.7969 23.862 33.9688 24.0078C34.1406 24.1484 34.2734 24.3203 34.3672 24.5234C34.4609 24.7266 34.5078 24.9557 34.5078 25.2109V25.875H32.9297C32.3411 25.875 31.8073 25.9323 31.3281 26.0469C30.8542 26.1615 30.4479 26.3359 30.1094 26.5703C29.7708 26.7995 29.5078 27.0885 29.3203 27.4375C29.138 27.7865 29.0469 28.1927 29.0469 28.6562C29.0469 29.0104 29.1146 29.3411 29.25 29.6484C29.3906 29.9505 29.5859 30.2135 29.8359 30.4375C30.0911 30.6562 30.3984 30.8307 30.7578 30.9609C31.1224 31.0911 31.5286 31.1562 31.9766 31.1562C32.2526 31.1562 32.513 31.1276 32.7578 31.0703C33.0026 31.013 33.2318 30.9349 33.4453 30.8359C33.6641 30.737 33.862 30.6224 34.0391 30.4922C34.2214 30.362 34.3854 30.224 34.5312 30.0781C34.5469 30.2552 34.5703 30.4271 34.6016 30.5937ZM32.9766 29.7891C32.7318 29.862 32.4688 29.8984 32.1875 29.8984C31.9062 29.8984 31.6589 29.862 31.4453 29.7891C31.2318 29.7161 31.0547 29.6172 30.9141 29.4922C30.7734 29.362 30.6667 29.2083 30.5938 29.0312C30.526 28.8542 30.4922 28.6615 30.4922 28.4531C30.4922 27.9167 30.7266 27.5234 31.1953 27.2734C31.6641 27.0234 32.3203 26.8984 33.1641 26.8984H34.5078V28.6094C34.4245 28.776 34.3099 28.9375 34.1641 29.0937C34.0182 29.2448 33.8438 29.3802 33.6406 29.5C33.4427 29.6198 33.2214 29.7161 32.9766 29.7891ZM38.7578 24.9687C38.6016 25.4948 38.5234 26.0729 38.5234 26.7031V26.8672C38.5234 27.4714 38.6042 28.0365 38.7656 28.5625C38.9271 29.0833 39.1536 29.5365 39.4453 29.9219C39.737 30.3073 40.0885 30.6094 40.5 30.8281C40.9167 31.0469 41.3802 31.1562 41.8906 31.1562C42.4115 31.1562 42.8672 31.0677 43.2578 30.8906C43.6484 30.7135 43.9844 30.4531 44.2656 30.1094L44.3281 31H45.6562V19H44.2109V23.3828C43.9349 23.0599 43.6068 22.8151 43.2266 22.6484C42.8516 22.4766 42.4115 22.3906 41.9062 22.3906C41.3906 22.3906 40.9245 22.4974 40.5078 22.7109C40.0911 22.9245 39.7344 23.2214 39.4375 23.6016C39.1458 23.9818 38.9193 24.4375 38.7578 24.9687ZM40.1016 28.0391C40.013 27.6693 39.9688 27.2786 39.9688 26.8672V26.7031C39.9688 26.2917 40.013 25.901 40.1016 25.5312C40.1901 25.1562 40.3255 24.8281 40.5078 24.5469C40.6953 24.2604 40.9323 24.0339 41.2188 23.8672C41.5104 23.7005 41.8594 23.6172 42.2656 23.6172C42.7396 23.6172 43.1354 23.7292 43.4531 23.9531C43.7708 24.1719 44.0234 24.4531 44.2109 24.7969V28.7187C44.1172 28.901 44.0078 29.0677 43.8828 29.2187C43.7578 29.3646 43.6146 29.4922 43.4531 29.6016C43.2917 29.7057 43.112 29.7865 42.9141 29.8437C42.7161 29.901 42.4948 29.9297 42.25 29.9297C41.849 29.9297 41.5052 29.849 41.2188 29.6875C40.9323 29.5208 40.6953 29.2969 40.5078 29.0156C40.3255 28.7344 40.1901 28.4089 40.1016 28.0391ZM50.5 30.8516C51 31.0547 51.5469 31.1562 52.1406 31.1562C52.5521 31.1562 52.9323 31.1094 53.2812 31.0156C53.6302 30.9271 53.9427 30.8073 54.2188 30.6562C54.4948 30.5052 54.737 30.3333 54.9453 30.1406C55.1589 29.9427 55.3359 29.737 55.4766 29.5234L54.5938 28.8359C54.3281 29.1797 53.9948 29.4557 53.5938 29.6641C53.1927 29.8724 52.7344 29.9766 52.2188 29.9766C51.8281 29.9766 51.4714 29.9036 51.1484 29.7578C50.8255 29.612 50.5469 29.4141 50.3125 29.1641C50.0833 28.9089 49.901 28.612 49.7656 28.2734C49.6354 27.9349 49.5625 27.5729 49.5469 27.1875H55.5859V26.5391C55.5859 25.9505 55.5104 25.4036 55.3594 24.8984C55.2135 24.3932 54.9896 23.9557 54.6875 23.5859C54.3854 23.2109 54.0052 22.9193 53.5469 22.7109C53.0938 22.4974 52.5625 22.3906 51.9531 22.3906C51.4688 22.3906 50.9948 22.4896 50.5312 22.6875C50.0729 22.8854 49.6615 23.1719 49.2969 23.5469C48.9375 23.9167 48.6484 24.3724 48.4297 24.9141C48.2109 25.4505 48.1016 26.0599 48.1016 26.7422V27.0703C48.1016 27.6589 48.2005 28.2031 48.3984 28.7031C48.5964 29.2031 48.8724 29.6354 49.2266 30C49.5807 30.3646 50.0052 30.6484 50.5 30.8516ZM51.125 23.7422C51.3854 23.6328 51.6615 23.5781 51.9531 23.5781C52.3229 23.5781 52.6406 23.6458 52.9062 23.7812C53.1771 23.9167 53.401 24.0937 53.5781 24.3125C53.7552 24.5312 53.888 24.7786 53.9766 25.0547C54.0703 25.3307 54.125 25.6094 54.1406 25.8906V26H49.5938C49.651 25.6094 49.75 25.2656 49.8906 24.9687C50.0365 24.6667 50.2135 24.4141 50.4219 24.2109C50.6302 24.0026 50.8646 23.8464 51.125 23.7422ZM59.4141 23.7969L59.3125 22.5469H58.0156V31H59.4609V24.9375C59.6797 24.5417 59.9714 24.224 60.3359 23.9844C60.7057 23.7396 61.1328 23.6172 61.6172 23.6172C61.9245 23.6172 62.1953 23.6536 62.4297 23.7266C62.6693 23.7995 62.8698 23.9167 63.0312 24.0781C63.1979 24.2396 63.3229 24.4505 63.4062 24.7109C63.4896 24.9714 63.5312 25.2891 63.5312 25.6641V31H64.9766V25.6328C64.9766 25.0703 64.9062 24.5859 64.7656 24.1797C64.6302 23.7682 64.4349 23.4297 64.1797 23.1641C63.9245 22.8984 63.6146 22.7031 63.25 22.5781C62.8906 22.4531 62.4896 22.3906 62.0469 22.3906C61.4948 22.3958 60.9948 22.5234 60.5469 22.7734C60.099 23.0182 59.7214 23.3594 59.4141 23.7969ZM73.0391 30.5937C73.0755 30.7552 73.1224 30.8906 73.1797 31H74.6875V30.875C74.5938 30.6406 74.5208 30.3672 74.4688 30.0547C74.4167 29.737 74.3906 29.4375 74.3906 29.1562V25.2266C74.3906 24.7526 74.3047 24.3385 74.1328 23.9844C73.9609 23.6302 73.724 23.3359 73.4219 23.1016C73.125 22.862 72.7708 22.6849 72.3594 22.5703C71.9479 22.4505 71.5026 22.3906 71.0234 22.3906C70.4974 22.3906 70.026 22.4635 69.6094 22.6094C69.1979 22.7552 68.8464 22.9479 68.5547 23.1875C68.2682 23.4219 68.0469 23.6875 67.8906 23.9844C67.7396 24.2812 67.6615 24.5833 67.6562 24.8906H69.1094C69.1094 24.7135 69.151 24.5443 69.2344 24.3828C69.3229 24.2161 69.4453 24.0729 69.6016 23.9531C69.7578 23.8333 69.9479 23.737 70.1719 23.6641C70.401 23.5911 70.6589 23.5547 70.9453 23.5547C71.2526 23.5547 71.5286 23.5937 71.7734 23.6719C72.0234 23.75 72.2344 23.862 72.4062 24.0078C72.5781 24.1484 72.7109 24.3203 72.8047 24.5234C72.8984 24.7266 72.9453 24.9557 72.9453 25.2109V25.875H71.3672C70.7786 25.875 70.2448 25.9323 69.7656 26.0469C69.2917 26.1615 68.8854 26.3359 68.5469 26.5703C68.2083 26.7995 67.9453 27.0885 67.7578 27.4375C67.5755 27.7865 67.4844 28.1927 67.4844 28.6562C67.4844 29.0104 67.5521 29.3411 67.6875 29.6484C67.8281 29.9505 68.0234 30.2135 68.2734 30.4375C68.5286 30.6562 68.8359 30.8307 69.1953 30.9609C69.5599 31.0911 69.9661 31.1562 70.4141 31.1562C70.6901 31.1562 70.9505 31.1276 71.1953 31.0703C71.4401 31.013 71.6693 30.9349 71.8828 30.8359C72.1016 30.737 72.2995 30.6224 72.4766 30.4922C72.6589 30.362 72.8229 30.224 72.9688 30.0781C72.9844 30.2552 73.0078 30.4271 73.0391 30.5937ZM71.4141 29.7891C71.1693 29.862 70.9062 29.8984 70.625 29.8984C70.3438 29.8984 70.0964 29.862 69.8828 29.7891C69.6693 29.7161 69.4922 29.6172 69.3516 29.4922C69.2109 29.362 69.1042 29.2083 69.0312 29.0312C68.9635 28.8542 68.9297 28.6615 68.9297 28.4531C68.9297 27.9167 69.1641 27.5234 69.6328 27.2734C70.1016 27.0234 70.7578 26.8984 71.6016 26.8984H72.9453V28.6094C72.862 28.776 72.7474 28.9375 72.6016 29.0937C72.4557 29.2448 72.2812 29.3802 72.0781 29.5C71.8802 29.6198 71.6589 29.7161 71.4141 29.7891ZM93.8047 29.0312C94.0078 28.5885 94.1432 28.1042 94.2109 27.5781H92.7656C92.7188 27.9219 92.638 28.2422 92.5234 28.5391C92.4089 28.8307 92.2552 29.0859 92.0625 29.3047C91.8698 29.5182 91.6328 29.6849 91.3516 29.8047C91.0755 29.9245 90.7474 29.9844 90.3672 29.9844C90.0182 29.9844 89.7135 29.9297 89.4531 29.8203C89.1927 29.7057 88.9661 29.5521 88.7734 29.3594C88.5807 29.1615 88.4219 28.9349 88.2969 28.6797C88.1719 28.4245 88.0703 28.1536 87.9922 27.8672C87.9141 27.5755 87.8568 27.2812 87.8203 26.9844C87.7891 26.6823 87.7734 26.3906 87.7734 26.1094V24.5078C87.7734 24.2266 87.7891 23.9375 87.8203 23.6406C87.8568 23.3385 87.9141 23.0443 87.9922 22.7578C88.0703 22.4714 88.1719 22.2005 88.2969 21.9453C88.4271 21.6901 88.5859 21.4661 88.7734 21.2734C88.9661 21.0807 89.1927 20.9297 89.4531 20.8203C89.7188 20.7057 90.0234 20.6484 90.3672 20.6484C90.7474 20.6484 91.0755 20.7135 91.3516 20.8437C91.6328 20.9687 91.8698 21.1432 92.0625 21.3672C92.2552 21.5911 92.4089 21.8516 92.5234 22.1484C92.638 22.4453 92.7188 22.7656 92.7656 23.1094H94.2109C94.1484 22.5677 94.0182 22.0729 93.8203 21.625C93.6276 21.1771 93.3698 20.7943 93.0469 20.4766C92.724 20.1536 92.3385 19.9062 91.8906 19.7344C91.4427 19.5573 90.9349 19.4687 90.3672 19.4687C89.8932 19.4687 89.4661 19.5365 89.0859 19.6719C88.7057 19.8021 88.3646 19.9844 88.0625 20.2187C87.7656 20.4531 87.5078 20.7318 87.2891 21.0547C87.0755 21.3724 86.8958 21.7187 86.75 22.0937C86.6094 22.4687 86.5026 22.862 86.4297 23.2734C86.362 23.6849 86.3255 24.1016 86.3203 24.5234V26.1094C86.3255 26.5312 86.362 26.9479 86.4297 27.3594C86.5026 27.7708 86.6094 28.1641 86.75 28.5391C86.8958 28.9141 87.0755 29.2604 87.2891 29.5781C87.5078 29.8958 87.7656 30.1719 88.0625 30.4062C88.3646 30.6406 88.7057 30.8255 89.0859 30.9609C89.4714 31.0911 89.8984 31.1562 90.3672 31.1562C90.9141 31.1562 91.4089 31.0703 91.8516 30.8984C92.2995 30.7214 92.6849 30.4766 93.0078 30.1641C93.3359 29.8464 93.6016 29.4687 93.8047 29.0312ZM101 22.5469H96.6797V23.8047H99.5547V29.75H96.6797V31H103.758V29.75H101V22.5469ZM99.5781 19.7266C99.4375 19.888 99.3672 20.0885 99.3672 20.3281C99.3672 20.5625 99.4375 20.7578 99.5781 20.9141C99.724 21.0703 99.9427 21.1484 100.234 21.1484C100.521 21.1484 100.737 21.0703 100.883 20.9141C101.029 20.7578 101.102 20.5625 101.102 20.3281C101.102 20.0885 101.029 19.888 100.883 19.7266C100.737 19.5599 100.521 19.4766 100.234 19.4766C99.9427 19.4766 99.724 19.5599 99.5781 19.7266ZM109.484 22.5469V20.5H108.031V22.5469H105.812V23.6641H108.031V28.2578C108.031 28.7786 108.099 29.224 108.234 29.5937C108.375 29.9583 108.565 30.2578 108.805 30.4922C109.044 30.7214 109.326 30.8906 109.648 31C109.977 31.1042 110.328 31.1562 110.703 31.1562C110.927 31.1562 111.151 31.1458 111.375 31.125C111.604 31.1042 111.82 31.0729 112.023 31.0312C112.227 30.9948 112.414 30.9505 112.586 30.8984C112.758 30.8411 112.904 30.776 113.023 30.7031L112.82 29.6797C112.732 29.7005 112.617 29.7266 112.477 29.7578C112.341 29.7839 112.193 29.8099 112.031 29.8359C111.875 29.862 111.714 29.8854 111.547 29.9062C111.38 29.9219 111.219 29.9297 111.062 29.9297C110.849 29.9297 110.646 29.9036 110.453 29.8516C110.266 29.7995 110.099 29.7109 109.953 29.5859C109.807 29.4557 109.693 29.2839 109.609 29.0703C109.526 28.8568 109.484 28.5859 109.484 28.2578V23.6641H112.703V22.5469H109.484ZM119.156 29.0234L118.781 28L116.461 22.5469H114.844L118.484 30.6016L117.906 31.7266C117.854 31.8307 117.781 31.9635 117.688 32.125C117.599 32.2865 117.49 32.4427 117.359 32.5937C117.234 32.7448 117.089 32.875 116.922 32.9844C116.76 33.0937 116.581 33.1484 116.383 33.1484C116.346 33.1484 116.297 33.1458 116.234 33.1406C116.172 33.1406 116.107 33.138 116.039 33.1328C115.971 33.1276 115.906 33.1224 115.844 33.1172C115.781 33.112 115.732 33.1094 115.695 33.1094L115.461 34.2891C115.508 34.2995 115.568 34.3125 115.641 34.3281C115.714 34.3437 115.792 34.3568 115.875 34.3672C115.958 34.3828 116.042 34.3932 116.125 34.3984C116.208 34.4089 116.284 34.4141 116.352 34.4141C116.732 34.4141 117.068 34.3437 117.359 34.2031C117.651 34.0625 117.906 33.888 118.125 33.6797C118.344 33.4714 118.529 33.2448 118.68 33C118.836 32.7552 118.964 32.5234 119.062 32.3047L123.352 22.5469H121.734L119.156 29.0234ZM141.852 29.0312C142.055 28.5885 142.19 28.1042 142.258 27.5781H140.812C140.766 27.9219 140.685 28.2422 140.57 28.5391C140.456 28.8307 140.302 29.0859 140.109 29.3047C139.917 29.5182 139.68 29.6849 139.398 29.8047C139.122 29.9245 138.794 29.9844 138.414 29.9844C138.065 29.9844 137.76 29.9297 137.5 29.8203C137.24 29.7057 137.013 29.5521 136.82 29.3594C136.628 29.1615 136.469 28.9349 136.344 28.6797C136.219 28.4245 136.117 28.1536 136.039 27.8672C135.961 27.5755 135.904 27.2812 135.867 26.9844C135.836 26.6823 135.82 26.3906 135.82 26.1094V24.5078C135.82 24.2266 135.836 23.9375 135.867 23.6406C135.904 23.3385 135.961 23.0443 136.039 22.7578C136.117 22.4714 136.219 22.2005 136.344 21.9453C136.474 21.6901 136.633 21.4661 136.82 21.2734C137.013 21.0807 137.24 20.9297 137.5 20.8203C137.766 20.7057 138.07 20.6484 138.414 20.6484C138.794 20.6484 139.122 20.7135 139.398 20.8437C139.68 20.9687 139.917 21.1432 140.109 21.3672C140.302 21.5911 140.456 21.8516 140.57 22.1484C140.685 22.4453 140.766 22.7656 140.812 23.1094H142.258C142.195 22.5677 142.065 22.0729 141.867 21.625C141.674 21.1771 141.417 20.7943 141.094 20.4766C140.771 20.1536 140.385 19.9062 139.938 19.7344C139.49 19.5573 138.982 19.4687 138.414 19.4687C137.94 19.4687 137.513 19.5365 137.133 19.6719C136.753 19.8021 136.411 19.9844 136.109 20.2187C135.812 20.4531 135.555 20.7318 135.336 21.0547C135.122 21.3724 134.943 21.7187 134.797 22.0937C134.656 22.4687 134.549 22.862 134.477 23.2734C134.409 23.6849 134.372 24.1016 134.367 24.5234V26.1094C134.372 26.5312 134.409 26.9479 134.477 27.3594C134.549 27.7708 134.656 28.1641 134.797 28.5391C134.943 28.9141 135.122 29.2604 135.336 29.5781C135.555 29.8958 135.812 30.1719 136.109 30.4062C136.411 30.6406 136.753 30.8255 137.133 30.9609C137.518 31.0911 137.945 31.1562 138.414 31.1562C138.961 31.1562 139.456 31.0703 139.898 30.8984C140.346 30.7214 140.732 30.4766 141.055 30.1641C141.383 29.8464 141.648 29.4687 141.852 29.0312ZM144.359 25C144.182 25.5208 144.094 26.0859 144.094 26.6953V26.8672C144.094 27.4766 144.182 28.0417 144.359 28.5625C144.536 29.0833 144.789 29.5365 145.117 29.9219C145.451 30.3073 145.854 30.6094 146.328 30.8281C146.807 31.0469 147.346 31.1562 147.945 31.1562C148.539 31.1562 149.073 31.0469 149.547 30.8281C150.021 30.6094 150.422 30.3073 150.75 29.9219C151.083 29.5365 151.339 29.0833 151.516 28.5625C151.693 28.0417 151.781 27.4766 151.781 26.8672V26.6953C151.781 26.0859 151.693 25.5208 151.516 25C151.339 24.474 151.083 24.0182 150.75 23.6328C150.422 23.2474 150.018 22.9453 149.539 22.7266C149.065 22.5026 148.529 22.3906 147.93 22.3906C147.336 22.3906 146.802 22.5026 146.328 22.7266C145.854 22.9453 145.451 23.2474 145.117 23.6328C144.789 24.0182 144.536 24.474 144.359 25ZM145.688 28.0625C145.589 27.6823 145.539 27.2839 145.539 26.8672V26.6953C145.539 26.2839 145.589 25.8906 145.688 25.5156C145.786 25.1354 145.935 24.8021 146.133 24.5156C146.336 24.2292 146.586 24.0026 146.883 23.8359C147.18 23.6641 147.529 23.5781 147.93 23.5781C148.331 23.5781 148.68 23.6641 148.977 23.8359C149.279 24.0026 149.529 24.2292 149.727 24.5156C149.93 24.8021 150.081 25.1354 150.18 25.5156C150.284 25.8906 150.336 26.2839 150.336 26.6953V26.8672C150.336 27.2839 150.286 27.6823 150.188 28.0625C150.089 28.4375 149.938 28.7682 149.734 29.0547C149.536 29.3411 149.286 29.5677 148.984 29.7344C148.688 29.901 148.341 29.9844 147.945 29.9844C147.544 29.9844 147.193 29.901 146.891 29.7344C146.589 29.5677 146.336 29.3411 146.133 29.0547C145.935 28.7682 145.786 28.4375 145.688 28.0625ZM158.656 19H154.336V20.2578H157.211V29.75H154.336V31H161.414V29.75H158.656V19ZM168.266 19H163.945V20.2578H166.82V29.75H163.945V31H171.023V29.75H168.266V19ZM175.422 30.8516C175.922 31.0547 176.469 31.1562 177.062 31.1562C177.474 31.1562 177.854 31.1094 178.203 31.0156C178.552 30.9271 178.865 30.8073 179.141 30.6562C179.417 30.5052 179.659 30.3333 179.867 30.1406C180.081 29.9427 180.258 29.737 180.398 29.5234L179.516 28.8359C179.25 29.1797 178.917 29.4557 178.516 29.6641C178.115 29.8724 177.656 29.9766 177.141 29.9766C176.75 29.9766 176.393 29.9036 176.07 29.7578C175.747 29.612 175.469 29.4141 175.234 29.1641C175.005 28.9089 174.823 28.612 174.688 28.2734C174.557 27.9349 174.484 27.5729 174.469 27.1875H180.508V26.5391C180.508 25.9505 180.432 25.4036 180.281 24.8984C180.135 24.3932 179.911 23.9557 179.609 23.5859C179.307 23.2109 178.927 22.9193 178.469 22.7109C178.016 22.4974 177.484 22.3906 176.875 22.3906C176.391 22.3906 175.917 22.4896 175.453 22.6875C174.995 22.8854 174.583 23.1719 174.219 23.5469C173.859 23.9167 173.57 24.3724 173.352 24.9141C173.133 25.4505 173.023 26.0599 173.023 26.7422V27.0703C173.023 27.6589 173.122 28.2031 173.32 28.7031C173.518 29.2031 173.794 29.6354 174.148 30C174.503 30.3646 174.927 30.6484 175.422 30.8516ZM176.047 23.7422C176.307 23.6328 176.583 23.5781 176.875 23.5781C177.245 23.5781 177.562 23.6458 177.828 23.7812C178.099 23.9167 178.323 24.0937 178.5 24.3125C178.677 24.5312 178.81 24.7786 178.898 25.0547C178.992 25.3307 179.047 25.6094 179.062 25.8906V26H174.516C174.573 25.6094 174.672 25.2656 174.812 24.9687C174.958 24.6667 175.135 24.4141 175.344 24.2109C175.552 24.0026 175.786 23.8464 176.047 23.7422ZM182.898 24.9687C182.747 25.4948 182.672 26.0729 182.672 26.7031V26.8672C182.672 27.4714 182.75 28.0365 182.906 28.5625C183.062 29.0833 183.284 29.5365 183.57 29.9219C183.862 30.3073 184.216 30.6094 184.633 30.8281C185.049 31.0469 185.516 31.1562 186.031 31.1562C186.536 31.1562 186.979 31.0729 187.359 30.9062C187.745 30.7344 188.078 30.487 188.359 30.1641V30.8906C188.359 31.2552 188.307 31.5781 188.203 31.8594C188.099 32.1406 187.948 32.375 187.75 32.5625C187.557 32.7552 187.323 32.901 187.047 33C186.771 33.099 186.461 33.1484 186.117 33.1484C185.924 33.1484 185.732 33.1276 185.539 33.0859C185.346 33.0495 185.154 32.987 184.961 32.8984C184.768 32.8099 184.578 32.6901 184.391 32.5391C184.203 32.3932 184.021 32.2135 183.844 32L183.094 32.8672C183.286 33.1432 183.516 33.375 183.781 33.5625C184.052 33.75 184.331 33.8984 184.617 34.0078C184.909 34.1224 185.195 34.2031 185.477 34.25C185.758 34.3021 186.008 34.3281 186.227 34.3281C186.758 34.3281 187.242 34.25 187.68 34.0937C188.117 33.9375 188.492 33.7083 188.805 33.4062C189.122 33.1042 189.367 32.737 189.539 32.3047C189.716 31.8724 189.805 31.3776 189.805 30.8203V22.5469H188.492L188.422 23.4687C188.146 23.1198 187.81 22.8542 187.414 22.6719C187.023 22.4844 186.568 22.3906 186.047 22.3906C185.521 22.3906 185.049 22.4974 184.633 22.7109C184.216 22.9245 183.862 23.2214 183.57 23.6016C183.279 23.9818 183.055 24.4375 182.898 24.9687ZM184.242 28.0391C184.159 27.6693 184.117 27.2786 184.117 26.8672V26.7031C184.117 26.2917 184.159 25.901 184.242 25.5312C184.331 25.1562 184.466 24.8281 184.648 24.5469C184.836 24.2604 185.073 24.0339 185.359 23.8672C185.651 23.7005 186 23.6172 186.406 23.6172C186.646 23.6172 186.865 23.6484 187.062 23.7109C187.26 23.7682 187.44 23.8516 187.602 23.9609C187.763 24.0651 187.906 24.1901 188.031 24.3359C188.156 24.4818 188.266 24.6432 188.359 24.8203V28.6953C188.266 28.8776 188.156 29.0443 188.031 29.1953C187.906 29.3464 187.763 29.4766 187.602 29.5859C187.445 29.6953 187.266 29.7812 187.062 29.8437C186.865 29.901 186.641 29.9297 186.391 29.9297C185.99 29.9297 185.646 29.849 185.359 29.6875C185.073 29.5208 184.836 29.2969 184.648 29.0156C184.466 28.7344 184.331 28.4089 184.242 28.0391ZM194.641 30.8516C195.141 31.0547 195.688 31.1562 196.281 31.1562C196.693 31.1562 197.073 31.1094 197.422 31.0156C197.771 30.9271 198.083 30.8073 198.359 30.6562C198.635 30.5052 198.878 30.3333 199.086 30.1406C199.299 29.9427 199.477 29.737 199.617 29.5234L198.734 28.8359C198.469 29.1797 198.135 29.4557 197.734 29.6641C197.333 29.8724 196.875 29.9766 196.359 29.9766C195.969 29.9766 195.612 29.9036 195.289 29.7578C194.966 29.612 194.688 29.4141 194.453 29.1641C194.224 28.9089 194.042 28.612 193.906 28.2734C193.776 27.9349 193.703 27.5729 193.688 27.1875H199.727V26.5391C199.727 25.9505 199.651 25.4036 199.5 24.8984C199.354 24.3932 199.13 23.9557 198.828 23.5859C198.526 23.2109 198.146 22.9193 197.688 22.7109C197.234 22.4974 196.703 22.3906 196.094 22.3906C195.609 22.3906 195.135 22.4896 194.672 22.6875C194.214 22.8854 193.802 23.1719 193.438 23.5469C193.078 23.9167 192.789 24.3724 192.57 24.9141C192.352 25.4505 192.242 26.0599 192.242 26.7422V27.0703C192.242 27.6589 192.341 28.2031 192.539 28.7031C192.737 29.2031 193.013 29.6354 193.367 30C193.721 30.3646 194.146 30.6484 194.641 30.8516ZM195.266 23.7422C195.526 23.6328 195.802 23.5781 196.094 23.5781C196.464 23.5781 196.781 23.6458 197.047 23.7812C197.318 23.9167 197.542 24.0937 197.719 24.3125C197.896 24.5312 198.029 24.7786 198.117 25.0547C198.211 25.3307 198.266 25.6094 198.281 25.8906V26H193.734C193.792 25.6094 193.891 25.2656 194.031 24.9687C194.177 24.6667 194.354 24.4141 194.562 24.2109C194.771 24.0026 195.005 23.8464 195.266 23.7422Z" fill="white"/>
</svg>
